<svg viewBox="0 0 283 512" xmlns="http://www.w3.org/2000/svg" fill-rule="evenodd" clip-rule="evenodd" stroke-linejoin="round" stroke-miterlimit="1.41"><path fill="#83d9a4" d="M0 158.9h282.48v335.45H0z"/><path d="M70.62 512h-35.3v-17.66h35.3V512zm176.55 0h-35.3v-17.66h35.3V512z" fill="#a6a9ab"/><path fill="#9be0b6" d="M0 0h282.48v158.9H0z"/><path d="M35.31 114.76a8.83 8.83 0 0 1-8.83-8.83V52.96a8.83 8.83 0 1 1 17.66 0v52.97a8.83 8.83 0 0 1-8.83 8.83zM35.31 256a8.83 8.83 0 0 1-8.83-8.83v-52.96a8.83 8.83 0 1 1 17.66 0v52.96A8.83 8.83 0 0 1 35.3 256z" fill="#888" fill-rule="nonzero"/></svg>