<?xml version="1.0" encoding="UTF-8" standalone="no"?><!DOCTYPE svg PUBLIC "-//W3C//DTD SVG 1.1//EN" "http://www.w3.org/Graphics/SVG/1.1/DTD/svg11.dtd"><svg width="100%" height="100%" viewBox="0 0 148 179" version="1.1" xmlns="http://www.w3.org/2000/svg" xmlns:xlink="http://www.w3.org/1999/xlink" xml:space="preserve" style="fill-rule:evenodd;clip-rule:evenodd;stroke-linejoin:round;stroke-miterlimit:1.41421;"><path d="M4.565,175.133c2.326,1.912 5.138,2.844 7.931,2.844c3.61,0.001 7.191,-1.556 9.663,-4.563l14.844,-18.061l-2.501,-5.377l7.033,-0.138l10.623,-12.925c2.627,-3.198 3.499,-7.436 2.352,-11.41l-2.364,-8.179l8.889,6.945l12.408,45.495c1.516,5.56 6.554,9.214 12.051,9.214c1.09,0 2.195,-0.143 3.297,-0.443c6.66,-1.816 10.588,-8.687 8.771,-15.348l-13.502,-49.501c-0.702,-2.577 -2.258,-4.918 -4.363,-6.561l-3.303,-2.581l-6.892,6.432l-1,-8l-6,-2.333l0.996,-6.174l-17.957,-14.028c1.03,-3.79 2.322,-7.564 3.756,-11.263l-13.24,-29.247c-1.101,-2.432 -1.188,-5.148 -0.247,-7.648c0.941,-2.499 2.802,-4.482 5.233,-5.584c1.309,-0.592 2.694,-0.891 4.12,-0.891c3.92,0 7.498,2.306 9.114,5.877l6.056,13.379c0.446,-0.91 0.883,-1.801 1.301,-2.665c1.925,-3.228 3.061,-6.925 3.373,-10.53l3.841,0.414c-2.189,-5.029 -2.685,-10.752 -1.196,-16.221l-14.294,-1.54c-0.894,-0.096 -1.768,-0.034 -2.598,0.151c-7.113,-0.345 -15.496,2.979 -21.591,12.113c-5.22,7.923 -9.054,14.765 -11.983,21.873l4.815,4.816l-8.481,5.831c-1.645,5.845 -2.898,12.221 -3.966,19.728c-0.81,12.383 4.862,17.917 11.521,20.838l7.588,26.251l-25.819,31.416c-4.384,5.333 -3.615,13.21 1.721,17.594ZM41.87,28.52c-4.025,1.821 -5.813,6.563 -3.991,10.587l14.333,31.668c0.37,0.819 1.796,0.984 3.623,0.713l0,-6.178l4,1.666l4,-2.333l1.946,-2.695l-13.325,-29.437c-1.822,-4.026 -6.562,-5.812 -10.586,-3.991ZM71.397,11.988c5.799,-10.977 19.419,-15.181 30.397,-9.381c10.979,5.799 15.183,19.419 9.384,30.397c-5.798,10.977 -19.419,15.18 -30.397,9.381c-10.979,-5.8 -15.183,-19.42 -9.384,-30.397ZM112.943,33.932c-0.538,1.019 -1.142,1.988 -1.803,2.905l27.171,2.927c0.291,0.031 0.58,0.046 0.866,0.046c4.035,0 7.503,-3.041 7.944,-7.144c0.475,-4.394 -2.704,-8.337 -7.096,-8.81l-24.269,-2.614c0.231,4.365 -0.719,8.726 -2.813,12.69Z" style="fill:#006750;"/></svg>