<svg xmlns="http://www.w3.org/2000/svg" xmlns:xlink="http://www.w3.org/1999/xlink" xml:space="preserve" version="1.1" style="shape-rendering:geometricPrecision;text-rendering:geometricPrecision;image-rendering:optimizeQuality;" viewBox="0 0 60000 75000" x="0px" y="0px" fill-rule="evenodd" clip-rule="evenodd"><defs><style type="text/css">
   
    .fil0 {fill:black;fill-rule:nonzero}
   
  </style></defs><g><path class="fil0" d="M51370 30192c201,-72 420,40 489,248 69,209 -38,436 -239,508 -6073,2166 -8896,8517 -11441,14244 -802,1805 -1578,3549 -2425,5101 -12,22 -26,42 -41,61l0 0c-621,761 -1216,1206 -1756,1413 -485,186 -929,186 -1315,49 -388,-137 -706,-409 -941,-763 -259,-392 -413,-889 -440,-1413 -1,-26 0,-52 3,-77l0 0c165,-1205 269,-2380 373,-3555 165,-1873 331,-3746 728,-5674 -590,1194 -1288,3176 -1985,5158 -558,1586 -1116,3173 -1646,4391 -169,451 -442,806 -764,1032 -265,186 -566,285 -874,280 -310,-5 -620,-116 -899,-349 -316,-264 -592,-689 -779,-1299 -238,-627 -461,-1256 -685,-1890 -647,-1825 -1304,-3682 -2274,-5344 11,578 107,1573 213,2663 160,1648 339,3500 221,4718l-1 12c-70,717 -291,1235 -591,1577 -249,284 -551,450 -871,511 -314,60 -638,17 -940,-114 -405,-176 -773,-512 -1014,-969 -15,-29 -27,-60 -35,-91 -1646,-5315 -3252,-9431 -5263,-12763 -2002,-3317 -4414,-5867 -7681,-8065 -178,-120 -229,-367 -113,-552 105,-168 310,-226 481,-146 1398,576 2645,1208 3762,1890 -67,-598 94,-1218 419,-1794 283,-502 694,-970 1185,-1353 489,-382 1060,-681 1666,-848 996,-274 2085,-194 3068,454 25,-224 81,-447 165,-660 178,-453 482,-870 877,-1184 396,-315 884,-529 1430,-577 150,-13 305,-14 463,-1 -420,-786 -503,-1695 -329,-2605 189,-987 687,-1972 1385,-2787 698,-814 1601,-1465 2601,-1785 1514,-484 3234,-221 4788,1353 237,-1683 1201,-2752 2440,-3276 861,-364 1853,-458 2819,-306 962,151 1903,546 2667,1161 1261,1014 2039,2608 1648,4669 762,-68 1391,268 1828,803 280,343 478,770 575,1224 97,452 96,932 -22,1381 -149,572 -478,1095 -1017,1454 316,232 617,562 855,957 279,463 476,1022 517,1629 57,839 -184,1762 -917,2634 -20,155 57,243 197,286 611,188 1904,-27 3198,-242 2170,-360 3456,-543 5623,-1142 201,-83 406,-163 615,-237zm-48296 -12881c353,0 672,148 904,388 231,240 374,571 374,938 0,366 -143,698 -374,938 -231,240 -551,388 -904,388 -353,0 -672,-148 -904,-388 -231,-240 -374,-571 -374,-938 0,-366 143,-698 374,-938 231,-240 551,-388 904,-388zm359 954c-92,-95 -218,-154 -359,-154 -140,0 -267,59 -359,154 -92,95 -148,227 -148,372 0,145 57,277 148,372 92,95 218,154 359,154 140,0 267,-59 359,-154 92,-95 148,-227 148,-372 0,-145 -57,-277 -148,-372zm53010 -213c487,0 927,205 1246,536 319,331 516,788 516,1293 0,505 -197,962 -516,1293 -319,331 -760,536 -1246,536 -487,0 -927,-205 -1246,-536 -319,-331 -516,-788 -516,-1293 0,-505 197,-962 516,-1293 319,-331 760,-536 1246,-536zm701 1101c-179,-186 -427,-301 -701,-301 -274,0 -522,115 -701,301 -179,186 -290,443 -290,727 0,284 111,541 290,727 179,186 427,301 701,301 274,0 522,-115 701,-301 179,-186 290,-443 290,-727 0,-284 -111,-541 -290,-727zm-4301 8625c-158,-408 122,-908 569,-1362 475,-483 1164,-963 1599,-1144 428,-178 872,-209 1243,-115 417,106 749,366 900,754l0 1c150,388 82,813 -148,1188 -206,335 -547,631 -976,810l0 0c-380,158 -1046,323 -1642,378 -714,66 -1366,-45 -1545,-510zm1108 -793c-239,243 -413,447 -394,496 23,59 363,50 765,13 508,-47 1069,-183 1398,-315 16,-8 32,-15 49,-20 265,-115 471,-292 590,-487 94,-153 130,-313 88,-445 -5,-12 -10,-25 -15,-38 -57,-125 -189,-214 -359,-257 -224,-57 -500,-34 -776,81l0 0c-358,149 -938,556 -1346,972zm-46539 -2641l5 -13c10,-83 -233,-344 -538,-627 -394,-366 -887,-702 -1204,-834l0 0c-276,-115 -553,-137 -776,-81 -178,45 -314,141 -366,276 -52,136 -17,303 81,464 123,200 338,382 614,497 325,135 901,277 1422,325 390,36 720,46 762,-7zm-21 -1234c531,492 905,1064 743,1512l-5 13c-180,464 -831,575 -1545,510 -596,-55 -1262,-220 -1642,-378l0 0c-428,-178 -770,-475 -976,-810 -230,-375 -298,-800 -148,-1189 150,-389 483,-648 900,-754 371,-94 815,-63 1243,115 388,161 973,557 1430,981zm1394 -3032c-535,197 -1225,-343 -1817,-1089 -525,-661 -1006,-1498 -1193,-2045l0 0c-202,-590 -218,-1190 -81,-1684 150,-541 481,-964 958,-1140 475,-175 988,-64 1433,257 407,294 761,771 963,1362 212,619 416,1771 409,2689 -6,803 -188,1471 -672,1650zm-1224 -1595c404,509 800,904 968,842 113,-41 156,-418 160,-900 6,-828 -177,-1865 -367,-2420 -147,-428 -395,-768 -677,-972 -245,-177 -510,-244 -738,-160 -227,84 -391,309 -473,605 -94,337 -81,756 59,1177 6,14 11,29 15,44 167,473 589,1198 1053,1783zm31087 -3667c72,207 -31,436 -230,511 -200,75 -420,-32 -492,-239 -538,-1529 -7,-2807 1015,-3660 649,-542 1500,-906 2392,-1043 891,-137 1831,-48 2660,314 1233,538 2214,1663 2428,3522 1035,-909 2209,-1043 3280,-687 761,253 1465,760 2021,1412 554,651 964,1450 1141,2291 288,1373 -34,2849 -1342,3979 504,397 726,968 730,1559 2,393 -95,791 -273,1148 -178,357 -438,676 -760,909 -666,482 -1578,600 -2558,-58 -178,-119 -229,-365 -114,-550 115,-185 352,-238 530,-119 670,450 1274,384 1703,73 216,-157 393,-375 516,-621 123,-247 191,-517 189,-779 -3,-469 -242,-919 -809,-1140l0 0c-74,-29 -140,-82 -187,-156 -116,-185 -65,-432 113,-552 1407,-949 1769,-2292 1510,-3525 -148,-707 -495,-1381 -963,-1931 -467,-549 -1052,-973 -1680,-1181 -1012,-336 -2151,-98 -3086,1117l-1 0c-72,94 -184,153 -308,150 -212,-4 -381,-186 -376,-406 43,-2043 -841,-3215 -2000,-3721 -693,-302 -1489,-375 -2251,-258 -761,117 -1480,422 -2022,874 -776,648 -1180,1614 -774,2767zm-5611 -916c83,203 -8,437 -203,523 -195,86 -421,-8 -504,-211 -338,-822 -906,-1596 -1613,-2184 -580,-482 -1250,-837 -1961,-986 -701,-147 -1446,-95 -2186,233 -685,304 -1370,845 -2018,1684 -133,172 -375,199 -541,61 -101,-84 -150,-211 -143,-336 37,-1856 -835,-2983 -2016,-3483 -731,-309 -1581,-387 -2415,-256 -838,132 -1654,473 -2311,1001 -1153,927 -1817,2450 -1228,4447 62,211 -53,433 -256,497 -81,25 -164,22 -238,-5l0 0c-704,-256 -1275,-26 -1638,417 -201,245 -342,552 -412,880 -71,329 -69,677 16,1003 150,576 581,1081 1365,1268 119,4 235,25 346,65 176,55 294,235 271,431 -26,219 -218,375 -429,348 -94,-12 -186,-28 -274,-46 -133,10 -284,67 -441,163 -277,170 -551,452 -766,809 -217,361 -371,794 -402,1260 -45,667 160,1410 787,2122 143,163 132,416 -26,564 -157,148 -401,137 -544,-27 -787,-895 -1044,-1848 -985,-2713 41,-607 238,-1166 517,-1629 238,-396 538,-725 855,-957 -539,-358 -868,-881 -1017,-1454 -117,-449 -119,-928 -22,-1381 97,-454 295,-881 575,-1224 437,-535 1067,-871 1828,-803 -391,-2060 387,-3654 1648,-4669 764,-614 1705,-1010 2667,-1161 966,-152 1958,-58 2819,306 1239,524 2203,1593 2440,3276 546,-551 1114,-942 1687,-1196 891,-395 1790,-458 2638,-280 838,176 1622,588 2292,1145 805,669 1452,1553 1839,2493zm-19377 17758c666,460 1280,941 1847,1441 1735,1530 3031,3239 4029,5089 74,118 169,187 261,208 43,10 84,8 119,-5 31,-11 59,-33 81,-65 54,-77 81,-206 63,-392 -347,-899 -593,-2339 -655,-3759 -56,-1279 37,-2557 339,-3437 0,-492 150,-718 427,-727 425,-14 830,1349 1334,3048 579,1950 1305,4396 1863,5362 240,270 520,392 782,395 110,1 218,-19 318,-57 97,-38 189,-95 270,-170 186,-172 309,-437 312,-774 0,-20 2,-40 5,-59l0 0c167,-1071 322,-2389 286,-3860 -36,-1464 -262,-3085 -854,-4778 -3,-9 -6,-19 -9,-28l0 0c-155,-567 -112,-1017 45,-1302 95,-174 231,-296 396,-359 162,-63 340,-65 523,-1 310,108 649,428 920,987l1 -1 3162 6310c21,41 34,84 40,127 15,74 63,137 125,180 40,28 85,45 128,48 37,3 74,-4 107,-24 4,-3 9,-5 13,-8 67,-47 130,-145 176,-313 3,-12 7,-23 11,-34l0 0c595,-1621 1082,-3222 1508,-4862 431,-1655 799,-3339 1153,-5116 5,-24 11,-47 20,-69 266,-794 525,-1374 834,-1466 448,-133 740,359 824,1829 1,19 1,37 -1,56 -42,1797 -218,3559 -483,5206 -297,1852 -706,3564 -1159,5020 -59,365 -24,734 101,990 52,107 117,186 194,225 72,37 169,41 292,2 312,-100 721,-433 1236,-1112 13,-17 26,-32 41,-46 476,-512 880,-1105 1222,-1754 377,-716 679,-1502 915,-2325 11,-40 28,-77 49,-109 2517,-4541 1811,-1095 1104,2351 -223,1088 -446,2176 -451,2663 0,29 -3,57 -9,85 -39,209 -41,433 25,599 21,51 47,95 81,125 34,31 80,54 140,66 159,33 391,-1 718,-133 1836,-1917 3711,-3211 5726,-4192 220,-107 442,-211 666,-311 -1247,204 -2449,373 -3152,156 -616,-190 -912,-594 -707,-1335 15,-63 44,-123 89,-175 626,-712 832,-1456 787,-2122 -32,-466 -185,-899 -402,-1260 -215,-357 -489,-639 -766,-809 -156,-96 -308,-153 -441,-163 -88,18 -180,34 -274,46 -211,27 -403,-129 -429,-348 -23,-196 95,-376 271,-431 111,-40 227,-61 346,-65 785,-187 1215,-692 1365,-1268 85,-326 86,-674 16,-1003 -70,-327 -212,-635 -412,-880 -362,-443 -933,-673 -1638,-417l0 0c-74,27 -157,31 -238,5 -203,-64 -318,-286 -256,-497 589,-1997 -75,-3520 -1228,-4447 -657,-528 -1473,-870 -2311,-1001 -834,-131 -1684,-53 -2415,256 -1181,500 -2053,1627 -2016,3483 8,125 -42,252 -143,336 -166,138 -408,111 -541,-61 -1471,-1905 -3151,-2274 -4592,-1813 -859,275 -1642,841 -2252,1553 -609,711 -1042,1562 -1204,2408 -210,1098 48,2192 994,2939 130,79 261,168 392,269 171,131 206,381 80,558 -122,171 -351,211 -520,95 -133,-81 -259,-166 -376,-255 -498,-293 -973,-393 -1396,-356 -392,35 -742,189 -1027,415 -285,226 -503,525 -631,850 -146,373 -170,778 -32,1139 57,146 27,320 -88,436 -152,154 -396,150 -544,-8 -931,-991 -2069,-1169 -3087,-889 -509,140 -989,392 -1401,713 -410,320 -751,707 -983,1119 -364,646 -455,1350 -101,1924 27,44 45,92 54,140zm-1637 -113c1876,1698 3432,3620 4803,5891 2048,3394 3676,7558 5338,12920 155,279 378,482 619,587 168,73 343,98 506,67 157,-30 310,-115 440,-264 197,-225 345,-590 396,-1120l1 -10c111,-1139 -65,-2951 -221,-4561 -173,-1784 -323,-3337 7,-3755 216,-274 477,-302 795,-32l0 0c29,25 55,54 77,89 1198,1868 1941,3967 2671,6026 226,637 450,1270 682,1880l0 0c3,9 7,18 9,28 137,458 325,760 532,934 139,117 287,172 429,174 145,2 293,-49 431,-145 198,-138 368,-365 478,-657 4,-12 8,-23 13,-35 524,-1203 1075,-2772 1627,-4340 1146,-3259 2293,-6518 3378,-6785l0 2c62,-15 128,-15 194,5 204,60 322,281 264,492 -675,2432 -883,4789 -1091,7147 -105,1188 -210,2376 -370,3557 24,363 131,702 305,966 142,215 330,378 552,457 225,79 495,75 803,-43 417,-160 892,-522 1412,-1152 821,-1507 1586,-3228 2377,-5008 2060,-4634 4297,-9665 8282,-12701 -1128,378 -2202,796 -3233,1298 -1952,950 -3768,2207 -5549,4077 -37,43 -84,78 -139,102 -516,223 -921,271 -1233,206 -199,-42 -362,-127 -492,-245 -131,-118 -225,-262 -289,-422 -126,-314 -133,-695 -72,-1035 15,-588 241,-1686 466,-2784 183,-894 367,-1789 318,-1785 -247,850 -564,1665 -959,2416 -374,710 -818,1360 -1341,1925 -617,811 -1158,1226 -1607,1369 -325,104 -610,77 -853,-46 -238,-120 -420,-326 -546,-584 -199,-409 -258,-967 -169,-1499 3,-23 8,-47 15,-70 444,-1424 846,-3106 1139,-4931 260,-1619 434,-3344 474,-5094 -40,-746 291,-1138 155,-1097 0,0 -131,391 -317,949 -359,1800 -729,3495 -1157,5140 -433,1663 -926,3287 -1528,4929 -105,370 -292,613 -511,755 -8,6 -17,12 -26,17 -175,105 -364,144 -547,130 -177,-13 -348,-76 -495,-176 -216,-147 -385,-378 -450,-654l-3138 -6263 1 -1 -3 -6c-172,-357 -344,-545 -480,-593 -3,-1 -5,-2 -6,-3l0 1c-62,114 -66,344 25,684 618,1775 855,3476 893,5012 38,1522 -119,2877 -291,3979 -14,566 -235,1023 -567,1330 -150,139 -324,247 -514,320 -187,72 -387,109 -592,107 -475,-5 -970,-217 -1370,-682l1 -1c-15,-17 -28,-36 -40,-56 -614,-1031 -1366,-3565 -1964,-5581 -229,-772 -333,-1461 -409,-1917 -181,754 -233,1753 -189,2764 59,1360 292,2722 618,3538l0 0c13,31 21,65 26,100 57,434 -30,774 -196,1013 -118,171 -274,288 -448,352 -170,63 -356,74 -537,33 -281,-63 -555,-251 -747,-560l0 0c-4,-7 -9,-14 -12,-22 -956,-1776 -2198,-3417 -3865,-4886 -873,-769 -1862,-1492 -2986,-2164zm13161 -3370c-4,2 0,1 3,2 -1,-2 -1,-3 -3,-2z"/></g><text x="0" y="60015" fill="#000000" font-size="5px" font-weight="bold" font-family="'Helvetica Neue', Helvetica, Arial-Unicode, Arial, Sans-serif">Created by Olena Panasovska</text><text x="0" y="60020" fill="#000000" font-size="5px" font-weight="bold" font-family="'Helvetica Neue', Helvetica, Arial-Unicode, Arial, Sans-serif">from the Noun Project</text></svg>