<?xml version="1.0" encoding="UTF-8" standalone="no"?><!DOCTYPE svg PUBLIC "-//W3C//DTD SVG 1.1//EN" "http://www.w3.org/Graphics/SVG/1.1/DTD/svg11.dtd"><svg width="100%" height="100%" viewBox="0 0 88 95" version="1.1" xmlns="http://www.w3.org/2000/svg" xmlns:xlink="http://www.w3.org/1999/xlink" xml:space="preserve" style="fill-rule:evenodd;clip-rule:evenodd;stroke-linejoin:round;stroke-miterlimit:1.41421;"><path d="M29.858,95l-27.3,0c-1.5,0 -2.4,-1.2 -2.4,-2.6c-0.2,-16.5 -0.8,-39.7 3,-48.6c3.6,-8.5 16.4,-7 21.5,-5.7c4.2,1.1 6.5,3.1 9.4,6c1.7,1.6 3.5,3.5 5.4,5.6c2,2.2 5.7,6.3 7.2,7c3.6,1.1 13.8,-0.2 19.5,-1.5c3.9,-0.9 7.8,1.6 8.6,5.6c0.9,3.9 -1.6,7.8 -5.5,8.7c-2.1,0.5 -10.3,2.2 -18.1,2.2c-3.3,0 -6.5,-0.3 -9.2,-1.2c-2.9,-0.9 -5.5,-3 -8.1,-5.5c-0.6,11.2 -1.5,26.9 -1.6,27.8c-0.1,1.3 -0.8,2.2 -2.4,2.2ZM49.858,39.3c-5.4,-0.1 -8.6,-1.5 -9.2,-4.1c-0.7,-2.6 1.4,-5.3 6.2,-7.9c0.2,-0.2 0.5,-0.3 0.7,-0.4c1.2,-7.9 8,-13.9 16.2,-13.9c5.4,0 10.1,2.5 13.1,6.5c0.4,0 0.7,0 1.1,0c5.4,0.1 8.6,1.5 9.2,4.1c0.7,2.6 -1.4,5.2 -6.3,8c-0.131,0.087 -0.281,0.156 -0.434,0.222l-0.131,0.056c-0.153,0.066 -0.303,0.134 -0.435,0.222c-1.2,7.8 -8,13.7 -16.1,13.7c-5.4,0 -10.1,-2.5 -13.1,-6.5l-0.8,0ZM63.758,41.7c-3,0 -5.7,-1.1 -7.9,-2.8c3.1,-0.3 6.5,-1 9.9,-1.8c0.4,-0.1 0.7,-0.2 1.1,-0.3c0,0 0.8,1.1 2,1.2c1.4,0.1 1.1,1.8 1.4,1.8c-1.8,1.2 -4.1,1.9 -6.5,1.9ZM77.958,28.2c-3.5,1.8 -8.2,3.5 -13.2,4.7c-10.9,2.7 -18.3,2.3 -19.9,1.2c0.2,-0.3 0.9,-1.2 2.7,-2.3c0.1,0.5 0.1,0.9 0.3,1.3c1.1,0.1 2.5,0.1 4.2,0c-0.4,-1.2 -0.6,-2.5 -0.6,-3.8c0,-0.6 0,-1.3 0.1,-1.9c0.2,0.1 0.3,0.2 0.5,0.2l1.4,0.1c0.6,0.1 1.1,-0.3 1.2,-0.8l0.8,-2.4c0.1,-0.3 0.4,-0.6 0.7,-0.7l3.2,-1.2c0.1,-0.1 0.3,-0.1 0.4,-0.1l2.6,0c0.3,0 0.6,-0.1 0.8,-0.3l1.3,-1.3c0.4,-0.3 0.4,-0.9 0.2,-1.3l-1.2,-2.6c0.1,0 0.2,0 0.3,0c4.1,0 7.7,2 10,5.1l-3.1,-0.4c-0.4,-0.1 -0.9,0.1 -1.1,0.4l-2,2.3c-0.4,0.5 -0.4,1.3 0.1,1.7l0.2,0.2c0.5,0.4 0.5,1.1 0.2,1.7l-1.2,1.7c-0.1,0.1 -0.1,0.2 -0.2,0.3l-0.2,0.6c4.2,-1.1 8.1,-2.6 11.1,-4.1c0.8,-0.4 1.5,-0.8 2.1,-1.2c-0.1,-0.5 -0.3,-1 -0.5,-1.5c1.9,0.1 3.2,0.4 3.7,0.8c-0.2,0.5 -1.3,1.8 -4.9,3.6ZM18.958,0c9.162,0 16.6,7.438 16.6,16.6c0,9.162 -7.438,16.6 -16.6,16.6c-9.161,0 -16.6,-7.438 -16.6,-16.6c0,-9.162 7.439,-16.6 16.6,-16.6ZM61.758,27.7l-1,-0.4c-0.5,-0.2 -1,-0.1 -1.4,0.3l-3,3c-0.2,0.2 -0.4,0.6 -0.4,0.9l0,1.3c1.9,-0.2 4.1,-0.6 6.5,-1.1l0.1,-2.7c0,-0.6 -0.3,-1.1 -0.8,-1.3Z" style="fill:#006750;"/></svg>