<?xml version="1.0" encoding="UTF-8" standalone="no"?><!DOCTYPE svg PUBLIC "-//W3C//DTD SVG 1.1//EN" "http://www.w3.org/Graphics/SVG/1.1/DTD/svg11.dtd"><svg width="100%" height="100%" viewBox="0 0 87 87" version="1.1" xmlns="http://www.w3.org/2000/svg" xmlns:xlink="http://www.w3.org/1999/xlink" xml:space="preserve" style="fill-rule:evenodd;clip-rule:evenodd;stroke-linejoin:round;stroke-miterlimit:1.41421;"><path d="M67.426,72.152c0.601,-0.263 1.149,-0.655 1.624,-1.162l8.362,-8.981c1.892,-2.031 1.774,-5.196 -0.254,-7.087c-2.025,-1.885 -5.195,-1.776 -7.083,0.254l-5.712,6.132l-10.576,-5.817c-0.057,-0.032 -0.119,-0.026 -0.175,-0.054c-1.498,-1.145 -2.597,-2.002 -2.597,-2.002c-3.447,-3.276 -5.087,-4.575 -8.561,-9.574c-0.033,-0.038 -0.063,-0.062 -0.086,-0.098c-2.47,-3.279 -5.584,-2.011 -5.584,-2.011l-1.742,0.765c-0.01,0.003 -0.01,0 -0.022,0.003l-31.972,13.615c-2.545,1.086 -3.731,4.031 -2.646,6.577c1.082,2.545 4.028,3.73 6.572,2.646l22.784,-9.701c0.517,0.81 1.061,1.637 1.653,2.475c4.768,6.729 10.827,10.39 11.888,11l4.33,14.292c0.747,2.455 3.223,3.948 5.742,3.47l16.577,-0.935c0.356,-0.075 0.703,-0.18 1.023,-0.319c2.122,-0.901 3.41,-3.188 2.958,-5.552c-0.524,-2.721 -3.16,-4.504 -5.871,-3.981l-12.144,0.088l-2.945,-9.711l9.993,5.492c1.411,0.764 3.057,0.804 4.464,0.176ZM30.518,79.159c-0.863,-2.029 -2.055,-3.223 -3.432,-4.007l-5.277,-12.396l-1.844,0.785l4.492,10.557c-0.716,-0.201 -1.447,-0.369 -2.193,-0.532c-1.727,-0.383 -3.68,-0.815 -5.95,-1.75c-2.615,-1.077 -4.24,-2.722 -5.34,-4.447l-3.904,1.663c1.44,2.485 3.71,5.066 7.639,6.684c2.609,1.065 4.844,1.563 6.64,1.958c3.324,0.746 4.412,1.071 5.289,3.131c0.458,1.068 1.698,1.563 2.765,1.11c1.068,-0.455 1.573,-1.691 1.115,-2.756ZM4.802,51.669c-0.115,-1.522 0.066,-3.204 0.789,-5.039c0.9,-2.281 1.938,-3.99 2.858,-5.495c0.399,-0.653 0.788,-1.3 1.141,-1.953l3.768,8.846l1.844,-0.789l-4.548,-10.681c0.387,-1.539 0.354,-3.229 -0.509,-5.248c-0.454,-1.067 -1.696,-1.569 -2.765,-1.115c-1.068,0.46 -1.566,1.697 -1.111,2.767c0.874,2.057 0.357,3.074 -1.412,5.977c-0.96,1.573 -2.155,3.53 -3.188,6.15c-1.228,3.11 -1.291,5.893 -0.885,8.289l4.018,-1.709ZM74.954,42.102l-0.008,-0.007c0.144,-0.203 0.271,-0.41 0.365,-0.65c0.568,-1.493 -0.179,-3.165 -1.662,-3.731c-1.495,-0.569 -3.163,0.176 -3.734,1.667c-0.019,0.063 -0.024,0.119 -0.042,0.175l-0.021,0.004l-0.009,-0.021c0.019,-0.049 0.053,-0.097 0.071,-0.16c0.571,-1.491 -0.174,-3.162 -1.662,-3.731c-1.494,-0.564 -3.162,0.18 -3.727,1.668c-0.089,0.247 -0.14,0.485 -0.163,0.729l-0.01,0.004c-0.013,0.107 -0.009,0.212 -0.013,0.324c0,0.027 -0.01,0.063 0,0.094c-0.095,3.871 3.137,7.315 3.137,7.315c0,0 4.698,-0.418 7.211,-3.36c0.021,-0.028 0.042,-0.052 0.063,-0.073c0.064,-0.089 0.139,-0.162 0.204,-0.247ZM53.877,13.827c0,0 6.188,-8.516 3.896,-12.233c-2.281,-3.72 -5.854,-0.465 -9.417,4.967c-1.385,2.101 -2.598,4.117 -3.602,5.831c-2.343,3.976 -0.109,9.13 -0.121,9.242c-0.005,0.004 -0.005,0.008 0,0.011c1.229,3.532 1.821,8.874 -1.509,15.202c0.005,-0.003 0.016,-0.006 0.016,-0.006c0,0 -1.246,2.317 0.783,4.419c1.709,1.417 5.659,2.352 7.875,0.065c2.142,-2.214 -2.651,-5.167 -2.651,-5.167c0,0 6.747,2.325 9.218,-0.962c2.481,-3.304 -5.386,-5.316 -5.386,-5.316c0,0 9.895,0.122 11.055,-3.98c1.405,-4.966 -7.993,-4.086 -7.993,-4.086c0,0 8.338,-4.874 6.485,-9.163c-1.742,-4.037 -8.649,1.176 -8.649,1.176ZM39.66,22.948c2.794,6.555 -0.258,14.127 -6.815,16.917c-6.552,2.789 -14.128,-0.259 -16.918,-6.813c-2.792,-6.555 0.263,-14.127 6.817,-16.917c6.554,-2.79 14.125,0.258 16.916,6.813ZM86.904,28.422c-0.006,0.076 -0.011,0.153 -0.018,0.227c-0.004,0.026 -0.004,0.049 -0.004,0.072c-0.22,2.766 -2.781,4.982 -2.781,4.982c0,0 -3.32,-0.648 -4.9,-2.936c-0.015,-0.017 -0.025,-0.036 -0.035,-0.055c-0.042,-0.072 -0.092,-0.126 -0.127,-0.191l0,-0.009c-0.086,-0.148 -0.159,-0.311 -0.211,-0.489c-0.297,-1.106 0.362,-2.24 1.466,-2.533c1.109,-0.299 2.24,0.359 2.536,1.465c0.009,0.042 0.019,0.085 0.019,0.126l0.023,0.003l0.01,-0.008c-0.016,-0.041 -0.043,-0.079 -0.052,-0.121c-0.296,-1.106 0.357,-2.238 1.466,-2.536c1.107,-0.294 2.239,0.36 2.535,1.466c0.052,0.18 0.062,0.357 0.062,0.537l0.011,0Z" style="fill:#006750;"/></svg>