<svg xmlns="http://www.w3.org/2000/svg" xmlns:xlink="http://www.w3.org/1999/xlink" xml:space="preserve" version="1.1" style="shape-rendering:geometricPrecision;text-rendering:geometricPrecision;image-rendering:optimizeQuality;" viewBox="0 0 60000 75000" x="0px" y="0px" fill-rule="evenodd" clip-rule="evenodd"><defs><style type="text/css">
   
    .fil0 {fill:black;fill-rule:nonzero}
   
  </style></defs><g><path class="fil0" d="M35840 56095c35,153 -60,305 -213,340 -153,35 -305,-60 -340,-213l-2003 -8760c-2,-7 -3,-15 -4,-22 -1274,-5823 2620,-8580 5155,-10375 340,-241 654,-463 938,-683l0 0c89,-72 176,-143 261,-215l1151 -7346c-8,-71 -12,-147 -13,-226 -7,-478 129,-910 321,-1230 202,-337 478,-563 736,-614 -63,-420 -91,-856 -88,-1290 4,-490 47,-974 124,-1430l1 0c2,-12 5,-24 8,-36 458,-1496 958,-1682 1457,-1736 0,-8 0,-15 0,-23 20,-387 88,-707 191,-970 161,-412 406,-687 690,-858 285,-171 602,-232 908,-216 210,11 414,58 598,129l0 1c68,27 126,79 157,151 285,659 374,1476 458,2251 41,380 82,750 144,1080 1227,2299 2835,5590 2155,6795 62,953 -64,2204 -174,3292 -101,1003 -187,1860 -100,2125 13,38 17,77 13,115 -1,168 9,349 20,530 63,1059 126,2137 -1804,3394l-4442 4696c-473,601 -768,1249 -918,1934 -153,695 -158,1429 -49,2195 170,1199 820,2477 1497,3809 569,1119 1157,2275 1515,3489 44,150 -42,308 -192,352 -150,44 -308,-42 -352,-192 -342,-1157 -919,-2292 -1478,-3391 -698,-1373 -1368,-2691 -1552,-3989 -118,-830 -112,-1631 56,-2392 169,-768 501,-1496 1035,-2172l0 0c5,-7 11,-13 16,-19l4462 -4717c19,-24 42,-44 68,-62 1679,-1084 1624,-2000 1571,-2901 -11,-179 -21,-358 -20,-548 -103,-401 -14,-1285 89,-2311 104,-1032 223,-2214 176,-3117 -327,570 -642,1230 -954,1883 -636,1330 -1260,2637 -1971,3184 -1147,1332 -1258,2281 -1377,3301 -14,118 -28,237 -51,414 -20,155 -162,264 -317,244 -155,-20 -264,-162 -244,-317 13,-99 31,-253 49,-405 131,-1115 252,-2154 1532,-3630 15,-17 31,-32 48,-44 608,-453 1209,-1711 1821,-2992 274,-574 550,-1151 832,-1669l-771 1007c-34,45 -86,69 -139,70 -302,13 -622,-102 -894,-276 -304,-194 -553,-468 -651,-719 -20,-52 -14,-108 12,-152l720 -1320c-35,18 -63,40 -85,65 -12,17 -26,33 -42,48 -938,866 -1544,1870 -2186,2934 -864,1431 -1792,2969 -3675,4479l0 0 -4 3c-273,211 -604,446 -963,700 -2415,1710 -6125,4337 -4927,9798 1,4 2,7 3,11l2003 8760zm-5489 -47633c-1,156 -129,282 -285,281 -156,-1 -282,-129 -281,-285l54 -4717c1,-156 129,-282 285,-281 156,1 282,129 281,285l-54 4717zm-11275 5532c148,52 225,214 173,362 -52,148 -214,225 -362,173l-4446 -1579c-148,-52 -225,-214 -173,-362 52,-148 214,-225 362,-173l4446 1579zm6684 -4986c35,153 -60,305 -213,340 -153,35 -305,-60 -340,-213l-1060 -4597c-35,-153 60,-305 213,-340 153,-35 305,60 340,213l1060 4597zm-4174 1731c97,123 76,300 -47,397 -123,97 -300,76 -397,-47l-2923 -3703c-97,-123 -76,-300 47,-397 123,-97 300,-76 397,47l2923 3703zm19701 3870c-148,52 -310,-25 -362,-173 -52,-148 25,-310 173,-362l4446 -1579c148,-52 310,25 362,173 52,148 -25,310 -173,362l-4446 1579zm-6177 -5625c-35,153 -187,248 -340,213 -153,-35 -248,-187 -213,-340l1060 -4597c35,-153 187,-248 340,-213 153,35 248,187 213,340l-1060 4597zm3993 2014c-97,123 -275,143 -397,47 -123,-97 -143,-275 -47,-397l2923 -3703c97,-123 275,-143 397,-47 123,97 143,275 47,397l-2923 3703zm-5973 4833c-156,2 -284,-123 -286,-280 -2,-156 123,-284 280,-286 921,-14 1886,246 2631,810 651,493 1134,1211 1280,2175 23,155 -84,300 -239,323 -155,23 -300,-84 -323,-239 -121,-802 -521,-1399 -1060,-1806 -641,-485 -1478,-709 -2282,-696zm-2972 10585c984,-1454 2629,-2338 4236,-3202 1629,-876 3218,-1729 3929,-3110 613,-1192 269,-2736 -605,-3970 -393,-555 -893,-1046 -1462,-1413 -563,-363 -1192,-605 -1849,-665 -1306,-121 -2742,476 -4019,2249 -91,127 -268,156 -395,64 -27,-19 -49,-42 -67,-68 -1277,-1771 -2711,-2366 -4016,-2245 -656,61 -1285,302 -1849,665 -568,367 -1068,857 -1462,1413 -874,1234 -1218,2778 -605,3970 710,1381 2299,2235 3929,3110 1607,864 3251,1747 4236,3202zm4504 -2702c-1678,902 -3399,1826 -4255,3380 -25,46 -63,86 -113,113 -137,75 -310,25 -385,-112 -856,-1554 -2577,-2479 -4255,-3381 -1708,-918 -3373,-1813 -4164,-3350 -717,-1394 -341,-3164 647,-4558 434,-613 987,-1155 1617,-1561 635,-410 1350,-682 2104,-752 1413,-131 2941,451 4300,2177 1358,-1726 2887,-2307 4300,-2177 753,70 1469,342 2104,752 630,406 1183,949 1617,1561 988,1394 1364,3163 647,4558 -791,1537 -2456,2432 -4164,3350zm1729 28047c20,96 -41,190 -137,210 -96,20 -190,-41 -210,-137l-806 -3802c-20,-96 41,-190 137,-210 96,-20 190,41 210,137l806 3802zm-11799 -4483c17,-97 109,-161 205,-144 97,17 161,109 144,205l-676 3801c-17,97 -109,161 -205,144 -97,-17 -161,-109 -144,-205l676 -3801zm-6462 -20564c260,48 539,270 744,604 195,317 337,748 336,1227 0,76 -3,150 -10,222l1248 7335c81,67 164,133 249,200 4,2 7,5 10,8 285,215 605,435 952,674 2558,1761 6488,4468 5289,10308 -1,7 -2,14 -4,21l-1888 8785c-32,153 -183,251 -336,219 -153,-32 -251,-183 -219,-336l1888 -8785c1,-4 2,-7 3,-11 1126,-5477 -2618,-8055 -5055,-9734 -360,-248 -693,-477 -972,-687 -7,-5 -13,-10 -19,-16 -1893,-1481 -2838,-3002 -3717,-4418 -656,-1056 -1275,-2052 -2225,-2906 -16,-14 -29,-30 -41,-46 -21,-25 -50,-46 -85,-65l739 1314 0 0c25,44 30,98 11,148 -94,252 -340,529 -641,727 -267,176 -584,295 -885,288 -55,2 -109,-21 -145,-68l-785 -999c293,520 576,1092 856,1660 625,1265 1239,2508 1848,2959 22,14 42,31 61,51 1298,1458 1433,2495 1578,3609 16,119 31,239 55,405 22,155 -86,299 -241,321 -155,22 -299,-86 -321,-241 -16,-110 -36,-262 -55,-412 -133,-1019 -256,-1967 -1424,-3286 -718,-540 -1358,-1836 -2010,-3156 -323,-655 -650,-1315 -978,-1872 -36,901 99,2084 217,3116 117,1024 217,1906 119,2309 3,187 -5,367 -13,547 -42,901 -84,1819 1610,2881 19,12 37,26 52,42l4540 4676c8,8 16,17 23,27 539,667 879,1387 1057,2151 177,759 194,1560 87,2393 -167,1299 -820,2626 -1500,4008 -543,1104 -1105,2245 -1433,3410 -42,151 -199,239 -350,196 -151,-42 -239,-199 -196,-350 342,-1214 915,-2380 1470,-3508 659,-1340 1292,-2626 1447,-3829 98,-766 84,-1500 -78,-2193 -159,-682 -462,-1325 -942,-1920l-4508 -4643c-1943,-1230 -1894,-2308 -1845,-3367 8,-180 17,-359 13,-531 -4,-38 0,-77 12,-115 84,-265 -14,-1122 -128,-2124 -124,-1084 -266,-2332 -216,-3289 -697,-1196 869,-4511 2067,-6826 57,-327 93,-698 129,-1079 74,-778 153,-1597 427,-2257 30,-73 88,-127 155,-154l0 0c183,-74 386,-123 596,-137 305,-20 624,36 911,204 286,167 536,439 702,849 106,262 178,581 203,968 0,8 1,16 1,23 500,48 1002,227 1479,1716 5,14 8,28 10,42 83,455 132,937 142,1422 9,436 -13,873 -70,1293zm1641 8789l-1143 -6719 4 -39c8,-72 12,-139 12,-200 1,-364 -106,-690 -254,-929 -69,-112 -142,-202 -210,-261l754 7269c253,294 530,587 837,880zm-1492 -1705l-724 -6979c-5,-29 -5,-59 -1,-90 64,-424 89,-863 80,-1297 -9,-449 -55,-896 -131,-1319 -327,-1013 -626,-1234 -917,-1294 42,292 56,632 50,1024 0,24 -2,48 -8,73 -40,164 -84,323 -132,480 26,577 48,1169 69,1762 69,1904 139,3813 393,5626 51,81 101,162 152,244 358,576 727,1170 1168,1769zm-2019 -3088c-149,-1481 -204,-3008 -259,-4531 -6,-166 -12,-332 -18,-499 -62,126 -128,253 -199,383 -41,516 -123,1031 -266,1560 -133,490 -319,993 -575,1524 518,490 936,1014 1318,1563zm-377 -9127c-14,-42 -28,-81 -44,-119 -115,-283 -277,-466 -460,-572 -182,-106 -389,-141 -591,-128 -105,7 -210,27 -308,58 -172,470 -249,1044 -307,1618 175,-332 310,-594 386,-761l0 0c36,-80 109,-142 202,-161 471,-97 838,-78 1122,65zm-3399 8455l1098 1396c204,-13 421,-103 611,-228 211,-139 385,-318 472,-484l-833 -1480c-158,6 -330,39 -500,97 -176,60 -345,146 -491,258 -152,117 -278,264 -357,440zm-649 275c42,-501 305,-890 660,-1164 198,-153 424,-269 655,-347 229,-78 467,-120 689,-126 239,-6 462,31 646,112 211,-454 369,-888 484,-1313 140,-515 217,-1013 253,-1512 3,-49 19,-94 44,-133 194,-356 353,-686 484,-1015 130,-325 234,-651 321,-1001 11,-760 -56,-1274 -250,-1551 -146,-208 -404,-277 -809,-215 -116,239 -299,585 -521,1005 -157,298 -335,634 -522,995l-1 2c-1137,2190 -2633,5293 -2132,6263zm28468 5247c304,-297 577,-595 827,-892l659 -7278c-68,60 -140,151 -208,265 -144,241 -246,568 -241,933 1,59 6,126 15,200l4 35 -1056 6737zm1470 -1724c433,-605 794,-1204 1144,-1784 50,-83 100,-166 150,-248 230,-1812 274,-3723 319,-5629 14,-593 28,-1186 46,-1764 -50,-156 -95,-314 -138,-478 -5,-21 -8,-42 -9,-62l0 0c-12,-396 -2,-740 36,-1034 -290,64 -585,289 -898,1301 -72,427 -111,876 -115,1324 -3,436 27,875 97,1297 5,29 5,58 1,85l-633 6992zm1978 -3114c374,-553 786,-1083 1298,-1581 -263,-528 -456,-1029 -595,-1516 -151,-529 -240,-1043 -287,-1558 -72,-129 -140,-256 -203,-380 -4,166 -8,332 -12,499 -35,1524 -71,3051 -201,4536zm259 -9133c283,-147 650,-171 1122,-80 99,19 176,87 211,175 78,164 214,419 388,740 -66,-574 -151,-1148 -328,-1614 -99,-29 -204,-48 -310,-54 -202,-11 -408,28 -589,136 -181,109 -342,294 -453,578 -15,38 -29,78 -42,119zm1959 2461c-8,-13 -16,-27 -22,-41 -188,-351 -366,-678 -525,-968 -227,-416 -414,-759 -534,-998 -406,-57 -664,15 -807,226 -191,280 -251,795 -230,1555 91,347 199,671 334,996 136,328 298,655 493,1003 28,40 45,87 50,139 43,500 126,997 272,1509 121,423 284,856 501,1306 183,-84 407,-124 646,-121 222,3 460,42 691,117 231,75 459,188 659,339 359,270 627,655 676,1156 488,-974 -1038,-4042 -2203,-6217zm1550 5949c-81,-175 -210,-320 -363,-435 -147,-110 -318,-194 -495,-252 -171,-56 -343,-86 -501,-90l-813 1491c89,165 265,341 478,478 192,123 410,209 614,220l1080 -1411z"/></g><text x="0" y="60015" fill="#000000" font-size="5px" font-weight="bold" font-family="'Helvetica Neue', Helvetica, Arial-Unicode, Arial, Sans-serif">Created by Olena Panasovska</text><text x="0" y="60020" fill="#000000" font-size="5px" font-weight="bold" font-family="'Helvetica Neue', Helvetica, Arial-Unicode, Arial, Sans-serif">from the Noun Project</text></svg>