<?xml version="1.0" encoding="UTF-8" standalone="no"?><!DOCTYPE svg PUBLIC "-//W3C//DTD SVG 1.1//EN" "http://www.w3.org/Graphics/SVG/1.1/DTD/svg11.dtd"><svg width="100%" height="100%" viewBox="0 0 362 112" version="1.1" xmlns="http://www.w3.org/2000/svg" xmlns:xlink="http://www.w3.org/1999/xlink" xml:space="preserve" style="fill-rule:evenodd;clip-rule:evenodd;stroke-linejoin:round;stroke-miterlimit:1.41421;"><g><g><path d="M108.541,108.715l-102.429,0l0,-102.43l102.429,0l0,102.43ZM14.112,14.285l0,86.43l86.429,0l0,-86.43l-86.429,0Z" style="fill:#000;"/><rect x="0" y="0" width="100.416" height="101.154" style="fill:#fff;"/><path d="M50.59,73.579c-4.267,0 -8.075,-0.96 -11.424,-2.88c-3.35,-1.92 -5.963,-4.64 -7.84,-8.16c-1.878,-3.52 -2.816,-7.606 -2.816,-12.256c0,-4.651 0.938,-8.736 2.816,-12.256c1.877,-3.52 4.49,-6.24 7.84,-8.16c3.349,-1.92 7.157,-2.88 11.424,-2.88c4.266,0 8.074,0.96 11.424,2.88c3.349,1.92 5.962,4.64 7.84,8.16c1.877,3.52 2.816,7.605 2.816,12.256c0,4.65 -0.939,8.736 -2.816,12.256c-1.878,3.52 -4.491,6.24 -7.84,8.16c-3.35,1.92 -7.158,2.88 -11.424,2.88ZM50.59,67.691c3.328,0 6.165,-0.758 8.512,-2.272c2.346,-1.515 4.106,-3.584 5.28,-6.208c1.173,-2.624 1.76,-5.6 1.76,-8.928c0,-3.328 -0.587,-6.304 -1.76,-8.928c-1.174,-2.624 -2.934,-4.694 -5.28,-6.208c-2.347,-1.515 -5.184,-2.272 -8.512,-2.272c-3.328,0 -6.166,0.757 -8.512,2.272c-2.347,1.514 -4.107,3.584 -5.28,6.208c-1.174,2.624 -1.76,5.6 -1.76,8.928c0,3.328 0.586,6.304 1.76,8.928c1.173,2.624 2.933,4.693 5.28,6.208c2.346,1.514 5.184,2.272 8.512,2.272Z" style="fill:#000;fill-rule:nonzero;"/></g><g><path d="M233.491,108.715l-102.429,0l0,-102.43l102.429,0l0,102.43ZM139.062,14.285l0,86.43l86.429,0l0,-86.43l-86.429,0Z" style="fill:#000;"/><rect x="124.95" y="0" width="100.416" height="101.154" style="fill:#fff;"/><path d="M156.02,27.883l16.576,0c4.352,0 8.213,0.885 11.584,2.656c3.37,1.77 5.994,4.352 7.872,7.744c1.877,3.392 2.816,7.392 2.816,12c0,4.608 -0.939,8.608 -2.816,12c-1.878,3.392 -4.502,5.973 -7.872,7.744c-3.371,1.77 -7.232,2.656 -11.584,2.656l-16.576,0l0,-44.8ZM172.596,67.179c4.992,0 8.842,-1.526 11.552,-4.576c2.709,-3.051 4.064,-7.158 4.064,-12.32c0,-5.163 -1.355,-9.27 -4.064,-12.32c-2.71,-3.051 -6.56,-4.576 -11.552,-4.576l-10.496,0l0,33.792l10.496,0Z" style="fill:#000;fill-rule:nonzero;"/></g><g><path d="M358.441,108.715l-102.429,0l0,-102.43l102.429,0l0,102.43ZM264.012,14.285l0,86.43l86.429,0l0,-86.43l-86.429,0Z" style="fill:#000;"/><rect x="249.9" y="0" width="100.416" height="101.154" style="fill:#fff;"/><path d="M280.97,27.883l27.328,0l0,5.504l-21.248,0l0,13.12l16.896,0l0,5.504l-16.896,0l0,15.168l21.824,0l0,5.504l-27.904,0l0,-44.8Z" style="fill:#000;fill-rule:nonzero;"/></g></g></svg>