<?xml version="1.0" encoding="UTF-8" standalone="no"?><!DOCTYPE svg PUBLIC "-//W3C//DTD SVG 1.1//EN" "http://www.w3.org/Graphics/SVG/1.1/DTD/svg11.dtd"><svg width="100%" height="100%" viewBox="0 0 59 89" version="1.1" xmlns="http://www.w3.org/2000/svg" xmlns:xlink="http://www.w3.org/1999/xlink" xml:space="preserve" style="fill-rule:evenodd;clip-rule:evenodd;stroke-linejoin:round;stroke-miterlimit:1.41421;"><path d="M57.044,82c-11,-12.2 -16.6,-24.3 -18.8,-30c-0.2,-1.4 -0.5,-3.3 -0.6,-5.7c-0.1,0 -0.1,0 -0.2,0c-1.3,0 -2.6,-0.3 -4.1,-1c-2,-0.9 -4.4,-2.6 -7.2,-5.1c-0.9,-0.8 -1.5,-1.9 -1.5,-3.1c-0.1,-1.2 0.3,-2.4 1.1,-3.3c1.7,-1.9 4.6,-2.1 6.5,-0.4c0.7,0.7 1.5,1.2 2.1,1.8c-0.6,-2.4 -1.6,-5.3 -2.6,-7.9c-0.9,-2.1 -0.1,-4.4 1.7,-5.6c-1.4,-0.1 -2.8,0.2 -4.1,1c-1.6,0.9 -6.8,6.7 -7.3,7.2c-4.8,4.2 -7.1,4.6 -7.6,4.6c-0.3,-0.5 -1.3,-2.9 -0.2,-10.9c0.3,-2.2 -1.2,-4.2 -3.4,-4.5c-2.2,-0.3 -4.2,1.2 -4.5,3.4c-0.9,6.9 -1.5,16.4 4.8,19.2c1,0.5 2.1,0.7 3.2,0.7c1.8,0 3.9,-0.6 6.1,-1.8c-0.3,2 -0.4,3.9 -0.4,5.8c0,0.2 0,0.4 0,0.6c-0.1,3.2 -0.2,10 0.8,18.5c1.3,11.5 3.5,19.9 3.6,20.2c0.5,1.8 2.1,2.9 3.8,2.9c0.3,0 0.7,0 1,-0.1c2.1,-0.6 3.4,-2.7 2.8,-4.8c0,-0.1 -2.1,-8.1 -3.5,-19.2c-0.3,-2.9 -0.6,-5.6 -0.7,-8c1.2,0.2 2.4,0.3 3.6,0.3c2.8,6.8 8.8,18.6 19.6,30.6c0.8,0.9 1.9,1.3 2.9,1.3c1,0 1.9,-0.3 2.7,-1c1.8,-1.6 1.9,-4.1 0.4,-5.7ZM32.744,26.7c1.3,3.2 2.5,7 3.1,9.7l0.3,1.5l-1.2,-0.9c-1,-0.7 -2.2,-1.7 -3.5,-2.8c-0.6,-0.6 -1.4,-0.8 -2.2,-0.8c-0.9,0 -1.9,0.4 -2.5,1.1c-0.6,0.7 -0.9,1.5 -0.8,2.4c0.1,0.9 0.5,1.7 1.1,2.3c2.8,2.4 5,4.1 6.9,5c2.6,1.2 4.8,1.2 6.6,0c3.4,-2.5 2.4,-8 1.1,-12.5c-1.1,-3.9 -2.6,-7.4 -2.6,-7.5c-0.3,-0.8 -1,-1.5 -1.8,-1.8c-0.8,-0.3 -1.7,-0.3 -2.6,0c-1.8,0.6 -2.6,2.6 -1.9,4.3ZM15.57,18.011c0.12,0.652 -0.363,1.194 -1.026,1.289c-0.6,0 -1.1,-0.4 -1.2,-0.9l-0.1,-0.3c-0.4,-1.5 -1.9,-2.4 -3.4,-2c-0.7,0.2 -1.2,0.5 -1.6,1c-1.3,1.6 -3.6,1.8 -5.1,0.5c-1.5,-1.2 -2.6,-2.9 -3,-4.9c-0.8,-4.3 1.8,-8.6 6,-9.8c4.7,-1.3 9.6,1.5 10.7,6.2c0.1,0.7 0.2,1.4 0.2,2.1c0,0.2 0.1,0.4 0.1,0.6c0.2,0.9 1,1.6 1.8,1.7l0.5,1.7l0.3,1.3l0.1,0.3c0.2,0.5 -0.1,1.1 -0.6,1.3c-0.587,0.196 -1.27,-0.088 -1.486,-0.756c-0.004,-0.015 -0.009,-0.029 -0.014,-0.044c0.004,0.015 0.009,0.029 0.014,0.044c0.167,0.585 -0.228,1.161 -0.814,1.356c-0.562,0.187 -1.212,-0.152 -1.374,-0.689c-0.006,-0.036 -0.015,-0.074 -0.026,-0.111c0.007,0.038 0.015,0.075 0.026,0.111ZM32.244,0c5.243,0 9.5,4.257 9.5,9.5c0,5.243 -4.257,9.5 -9.5,9.5c-5.243,0 -9.5,-4.257 -9.5,-9.5c0,-5.243 4.257,-9.5 9.5,-9.5ZM13.844,12.4c-1.1,0.3 -2.2,-0.4 -2.5,-1.5c-0.3,-1.1 0.4,-2.2 1.5,-2.5c1.1,-0.3 2.2,0.4 2.5,1.5c0.3,1.2 -0.4,2.3 -1.5,2.5Z" style="fill:#006750;"/></svg>