<svg xmlns="http://www.w3.org/2000/svg" xmlns:xlink="http://www.w3.org/1999/xlink" xml:space="preserve" version="1.1" style="shape-rendering:geometricPrecision;text-rendering:geometricPrecision;image-rendering:optimizeQuality;" viewBox="0 0 60000 75000" x="0px" y="0px" fill-rule="evenodd" clip-rule="evenodd"><defs><style type="text/css">
   
    .fil0 {fill:black;fill-rule:nonzero}
   
  </style></defs><g><path class="fil0" d="M30073 44809c243,0 463,100 623,262 159,161 257,384 257,629 0,245 -98,467 -257,629 -160,162 -380,262 -623,262 -243,0 -463,-100 -623,-262 -159,-161 -257,-384 -257,-629 0,-245 98,-467 257,-629 160,-162 380,-262 623,-262zm-946 -39010l-428 -2033 111 -47c347,-147 715,-255 1102,-276 391,-21 800,48 1225,256l102 50 -399 1911 0 0 98 6060c573,70 1121,158 1653,281 543,126 1068,288 1583,508l37 16 23 31c48,64 84,127 109,188 63,150 62,289 18,412 -43,119 -126,219 -230,297 -64,48 -136,88 -213,120l-33 14 -35 -3c-450,-39 -803,-213 -1155,-386 -387,-190 -773,-380 -1297,-358l44 8098c2139,2383 5087,3018 7896,3623 480,103 956,206 1418,314l107 25 6 110c217,4139 -142,8449 -1724,12440 -1419,3579 -3819,6900 -7665,9608l27 3 -1033 9161 -3 11c-32,122 -82,210 -138,261 -47,43 -101,64 -158,64 -58,0 -112,-22 -159,-66l-1 0c-54,-50 -99,-135 -128,-254l-2 -8 -1254 -9094c-3911,-2722 -6344,-6072 -7776,-9686 -1582,-3991 -1941,-8301 -1724,-12440l6 -110 107 -25c462,-109 938,-211 1418,-314 2907,-626 5963,-1284 8117,-3878l-20 0 28 -7847c-568,-54 -979,142 -1389,339 -355,170 -709,340 -1161,375l-36 3 -33 -14c-75,-33 -148,-74 -211,-122 -104,-79 -186,-180 -227,-299 -43,-124 -42,-263 22,-412 26,-60 63,-122 112,-187l24 -31 37 -15c517,-214 1044,-371 1588,-491 521,-115 1055,-195 1611,-259l3 -5922zm2020 14794l-42 -7719c-285,52 -610,165 -991,364l-69 36 -69 -37c-340,-182 -222,-165 -484,-225l85 6525c292,-390 41,-21 292,-496l130 -245 130 245c308,582 649,1095 1017,1551zm-2041 -16313l306 1452 1126 -55 295 -1416c-338,-147 -568,-463 -882,-446 -309,16 -560,354 -845,466zm848 2843l-219 4596 318 4 339 -2 -429 -4535 -10 -63zm94 5822c1373,-698 2074,-353 2776,-7 260,128 523,241 815,319 253,68 438,-475 178,-575 -421,-163 -850,-290 -1291,-392 -526,-122 -1072,-208 -1646,-278 -556,3 -1100,2 -1656,-5 -575,64 -1121,145 -1648,261 -452,100 -893,225 -1325,391 -222,85 -76,611 204,566 298,-48 556,-187 816,-312 705,-338 1410,-676 2775,33zm127 43234l4 15 7 -23 1004 -8908c-359,245 -729,485 -1113,719l-76 47c-20,-12 -40,-24 -59,-36 -554,269 189,7637 233,8186zm314 -10901c-106,-107 -252,-174 -414,-174 -162,0 -308,66 -414,174 -106,108 -172,258 -172,423 0,166 66,315 172,423 106,107 252,174 414,174 162,0 308,-66 414,-174 106,-108 172,-258 172,-423 0,-166 -66,-315 -172,-423zm-487 2407c4571,-2815 7320,-6421 8873,-10340 1550,-3911 1912,-8138 1709,-12207 -432,-100 -866,-194 -1305,-288 -3439,-740 -7082,-1525 -9277,-5433 -2195,3908 -5838,4693 -9277,5433 -438,94 -873,188 -1305,288 -203,4069 159,8297 1709,12207 1553,3919 4302,7524 8873,10340zm346 -4059c237,245 627,559 964,781 254,167 455,287 480,271 3053,-1964 4803,-4531 5803,-7300 1003,-2778 1254,-5762 1306,-8547 2,-112 -91,-148 -230,-151 -159,-3 -371,32 -590,68 -351,58 -722,119 -1009,49l-69 -17 -30 -64c-96,-206 8,-586 118,-992l1 0c32,-117 64,-236 94,-358 90,-372 139,-704 -32,-746 -1048,-253 -2109,-558 -3111,-1017 -1008,-462 -1955,-1078 -2766,-1952 -58,-63 -120,-46 -187,16 -123,115 -260,338 -409,581 -170,278 -355,580 -572,804l-106 110 -106 -110c-216,-224 -401,-526 -572,-804 -149,-242 -286,-466 -409,-581 -67,-62 -129,-79 -187,-16 -197,212 -403,410 -616,594 -212,183 -432,353 -658,512 -700,490 -1455,860 -2235,1156 -775,294 -1575,515 -2368,707 -171,41 -122,374 -32,746 25,103 60,232 94,358 111,406 214,786 118,992l-30 64 -69 17c-287,70 -658,9 -1009,-49 -220,-36 -431,-71 -590,-68 -139,3 -232,39 -230,151 51,2784 295,5777 1292,8564 993,2777 2736,5353 5788,7317 18,12 199,-100 434,-257 358,-239 792,-592 1057,-842 139,-131 181,-210 199,-243 36,-66 54,-100 146,-98 96,2 112,37 144,106 15,33 52,114 182,248zm803 1026c-354,-233 -764,-564 -1013,-821 -53,-54 -94,-103 -126,-145 -35,41 -79,88 -135,141 -274,258 -723,623 -1095,872 -328,219 -620,347 -756,260 -3115,-2004 -4893,-4632 -5906,-7465 -1009,-2823 -1256,-5847 -1308,-8658 -6,-335 203,-442 518,-448 187,-3 410,33 642,72 285,47 584,97 808,69 9,-146 -68,-428 -149,-727 -31,-114 -63,-230 -95,-366 -126,-523 -166,-999 248,-1099 782,-189 1570,-407 2334,-697 759,-288 1493,-648 2171,-1122 217,-152 428,-315 634,-493 204,-177 402,-367 593,-573 206,-222 402,-184 601,1 153,142 300,382 459,642 132,216 274,447 427,634 153,-187 295,-418 427,-634 160,-261 307,-501 459,-642 199,-185 395,-223 601,-1 783,843 1698,1439 2673,1885 981,449 2025,749 3058,999 414,100 374,576 248,1099 -28,117 -62,243 -96,366l1 0c-81,298 -158,581 -149,727 224,28 523,-22 808,-69 232,-38 455,-75 642,-72 315,6 524,113 518,448 -52,2811 -306,5826 -1323,8641 -1020,2825 -2806,5444 -5920,7448 -137,88 -454,-46 -799,-273zm8124 -18744c243,0 463,100 623,262 159,161 257,384 257,629 0,245 -98,467 -257,629 -160,162 -380,262 -623,262 -243,0 -463,-100 -623,-262 -159,-161 -257,-384 -257,-629 0,-245 98,-467 257,-629 160,-162 380,-262 623,-262zm414 467c-106,-107 -252,-174 -414,-174 -162,0 -308,66 -414,174 -106,108 -172,258 -172,423 0,166 66,315 172,423 106,107 252,174 414,174 162,0 308,-66 414,-174 106,-108 172,-258 172,-423 0,-166 -66,-315 -172,-423zm-18959 -174c-162,0 -308,66 -414,174 -106,108 -172,258 -172,423 0,166 66,315 172,423 106,107 252,174 414,174 162,0 308,-66 414,-174 106,-108 172,-258 172,-423 0,-166 -66,-315 -172,-423 -106,-107 -252,-174 -414,-174zm-623 -32c160,-162 380,-262 623,-262 243,0 463,100 623,262 159,161 257,384 257,629 0,245 -98,467 -257,629 -160,162 -380,262 -623,262 -243,0 -463,-100 -623,-262 -159,-161 -257,-384 -257,-629 0,-245 98,-467 257,-629zm9965 -4843c243,0 463,100 623,262 159,161 257,384 257,629 0,245 -98,467 -257,629 -160,162 -380,262 -623,262 -243,0 -463,-100 -623,-262 -159,-161 -257,-384 -257,-629 0,-245 98,-467 257,-629 160,-162 380,-262 623,-262zm414 467c-106,-107 -252,-174 -414,-174 -162,0 -308,66 -414,174 -106,108 -172,258 -172,423 0,166 66,315 172,423 106,107 252,174 414,174 162,0 308,-66 414,-174 106,-108 172,-258 172,-423 0,-166 -66,-315 -172,-423zm-396 26098l171 8277 -146 3 -171 -8277 146 -3zm21 -34697l7 5968 -146 0 -7 -5968 146 0zm-9324 12875l16 1324 -146 2 -16 -1324 146 -2zm9358 -4744l0 1488 -147 0 0 -1488 147 0zm9203 4581l0 1488 -147 0 0 -1488 147 0zm-9200 18901l24 1606 -146 2 -24 -1606 146 -2z"/></g><text x="0" y="60015" fill="#000000" font-size="5px" font-weight="bold" font-family="'Helvetica Neue', Helvetica, Arial-Unicode, Arial, Sans-serif">Created by Olena Panasovska</text><text x="0" y="60020" fill="#000000" font-size="5px" font-weight="bold" font-family="'Helvetica Neue', Helvetica, Arial-Unicode, Arial, Sans-serif">from the Noun Project</text></svg>