<?xml version="1.0" encoding="UTF-8" standalone="no"?><!DOCTYPE svg PUBLIC "-//W3C//DTD SVG 1.1//EN" "http://www.w3.org/Graphics/SVG/1.1/DTD/svg11.dtd"><svg width="100%" height="100%" viewBox="0 0 80 97" version="1.1" xmlns="http://www.w3.org/2000/svg" xmlns:xlink="http://www.w3.org/1999/xlink" xml:space="preserve" style="fill-rule:evenodd;clip-rule:evenodd;stroke-linejoin:round;stroke-miterlimit:1.41421;"><path d="M44.499,24.112c-1.182,-4.133 -5.491,-6.527 -9.625,-5.345c-0.478,0.137 -0.943,0.318 -1.387,0.545c-8.645,4.394 -18.843,4.516 -27.59,0.33c-2.052,-0.981 -4.512,-0.113 -5.494,1.938c-0.98,2.052 -0.113,4.512 1.939,5.493c8.592,4.11 18.379,4.972 27.557,2.426c3.704,10.49 10.811,19.442 20.188,25.43c-2.428,12.677 -1.795,25.749 1.85,38.131c0.752,2.56 3.436,4.023 5.995,3.271c2.559,-0.754 4.023,-3.438 3.27,-5.997c-3.22,-10.941 -3.771,-22.496 -1.608,-33.694c3.897,-1.818 5.583,-6.449 3.768,-10.346c-1.498,-3.211 -4.974,-5.005 -8.457,-4.367c-4.909,-4.973 -8.486,-11.099 -10.406,-17.815ZM65.496,25.838c0.048,-0.027 0.097,-0.055 0.146,-0.08c2.363,-1.235 5.28,-0.321 6.517,2.043c4.308,8.239 6.782,17.312 7.255,26.599c0.014,0.241 0.007,0.483 -0.016,0.724c-0.265,2.652 -2.629,4.591 -5.283,4.328c-4.389,-0.436 -8.723,-1.32 -12.93,-2.64c2.926,-1.976 4.371,-5.521 3.662,-8.98c1.414,0.421 2.845,0.785 4.289,1.09c-0.701,-4.33 -1.919,-8.561 -3.628,-12.601c2.792,0.032 5.081,-2.202 5.114,-4.994c0.025,-2.107 -1.26,-4.011 -3.227,-4.772c-0.629,-0.246 -1.263,-0.486 -1.899,-0.717ZM47.941,30.493c5.51,1.041 10.912,2.585 16.139,4.612c2.121,0.823 4.506,-0.229 5.33,-2.351c0.822,-2.121 -0.23,-4.508 -2.352,-5.329c-7.307,-2.835 -14.922,-4.801 -22.688,-5.856c0.451,0.708 0.797,1.479 1.028,2.286c0.652,2.283 1.503,4.503 2.543,6.638ZM34.313,9.754c0,-5.388 -4.368,-9.754 -9.755,-9.754c-5.387,0 -9.753,4.366 -9.753,9.754c0,5.387 4.366,9.753 9.753,9.753c5.387,0 9.755,-4.366 9.755,-9.753Z" style="fill:#006750;"/></svg>