<svg xmlns="http://www.w3.org/2000/svg" xmlns:xlink="http://www.w3.org/1999/xlink" xml:space="preserve" version="1.1" style="shape-rendering:geometricPrecision;text-rendering:geometricPrecision;image-rendering:optimizeQuality;" viewBox="0 0 60000 75000" x="0px" y="0px" fill-rule="evenodd" clip-rule="evenodd"><defs><style type="text/css">
   
    .fil0 {fill:black;fill-rule:nonzero}
   
  </style></defs><g><path class="fil0" d="M47250 57837c-172,-27 -500,-68 -919,-120 -3848,-477 -15569,-1930 -17016,-8055 -2321,6821 -12429,7702 -16401,8047 -567,49 -1008,88 -1255,127l-88 -569c296,-47 732,-85 1294,-134 4166,-363 15283,-1330 16281,-9307l43 5 0 -19179c-28,-45 -45,-98 -45,-155 0,-310 -171,-571 -396,-710 -90,-56 -188,-91 -285,-101 -89,-9 -178,4 -258,44 -191,94 -353,338 -418,788 17,2116 -272,4148 -570,6243 -96,675 -193,1357 -273,1985 -20,158 -164,269 -321,249 -158,-20 -269,-164 -249,-321 91,-716 183,-1358 273,-1994 297,-2085 584,-4106 565,-6180 0,-14 1,-27 3,-41l0 0c93,-680 384,-1071 736,-1245 182,-90 377,-120 570,-101 185,19 367,83 530,185 48,30 94,62 139,98l0 -4158c-73,-189 -199,-358 -356,-488 -147,-121 -320,-204 -501,-233 -175,-28 -361,-3 -541,90 -246,128 -485,385 -680,814 -8,74 -16,141 -24,198l-873 6116 -1 7c-121,724 -162,1454 -203,2178 -58,1031 -116,2048 -396,3046 -692,2463 -1225,6530 -1524,8812 -28,211 -53,406 -77,584 -162,1221 -616,2101 -1267,2734l988 642c133,87 171,265 85,398 -87,133 -265,171 -398,85l-1137 -738c-94,68 -191,131 -291,192l960 1814c74,141 20,315 -121,389 -141,74 -315,20 -389,-121l-960 -1813c-1714,786 -4031,777 -6173,767 -1298,-6 -2528,-11 -3489,169l-106 -566c1010,-190 2270,-184 3597,-178 3551,15 7615,33 8129,-3847 24,-178 49,-373 77,-584 301,-2299 838,-6396 1540,-8893 264,-939 320,-1924 376,-2922 42,-738 84,-1483 209,-2234l873 -6116c10,-73 20,-155 30,-245l-7 -3c3,-8 7,-16 10,-24 7,-66 14,-135 21,-207 74,-739 178,-1771 544,-2164 285,-306 561,-486 822,-567 315,-98 602,-53 852,94 229,134 419,353 566,623 37,67 71,137 102,210 31,-73 65,-143 102,-210 147,-269 337,-488 566,-623 251,-147 537,-192 852,-94 260,81 537,261 822,567 366,392 470,1425 544,2164 11,110 21,212 32,305 6,14 12,29 18,44l-12 5c5,44 11,86 16,125l873 6116c115,691 116,1392 117,2086 2,1070 4,2120 448,3021 936,1899 1148,4591 1321,6787 86,1092 162,2060 310,2714 869,3849 4783,3855 8231,3860 1279,2 2496,4 3500,192l-106 566c-957,-180 -2146,-181 -3394,-183 -2279,-3 -4749,-7 -6524,-1044l-992 1874c-74,141 -248,195 -389,121 -141,-74 -195,-248 -121,-389l1020 -1926c-72,-54 -142,-111 -211,-170l-1276 829c-133,87 -312,49 -398,-85 -87,-133 -49,-312 85,-398l1168 -758c-527,-590 -927,-1359 -1153,-2362 -159,-703 -236,-1686 -323,-2795 -169,-2148 -377,-4780 -1262,-6578 -503,-1020 -505,-2137 -507,-3276 -1,-668 -3,-1344 -112,-1998l-1 -7 -873 -6116c-4,-31 -9,-65 -13,-101 -190,-422 -419,-675 -655,-800 -168,-89 -341,-112 -504,-87 -170,27 -332,106 -472,221 -162,134 -292,313 -363,514 1,8 3,17 4,25l-13 2c-18,55 -32,111 -41,168l0 3801c30,-23 62,-44 94,-64 164,-101 345,-166 530,-185 193,-19 388,11 570,101 352,174 643,565 736,1245l0 0c2,13 3,27 3,41 -19,2074 268,4096 565,6180 90,636 182,1278 273,1994 20,158 -92,302 -249,321 -158,20 -302,-92 -321,-249 -80,-628 -177,-1310 -273,-1985 -298,-2095 -587,-4126 -570,-6243 -65,-450 -227,-694 -418,-788 -81,-40 -170,-53 -258,-44 -97,10 -194,45 -285,101 -225,139 -396,400 -396,710l0 19363 -1 25c-621,7118 12563,8752 16637,9256 391,48 697,86 937,124l-88 569zm-39590 -46672l765 2042 1412 1093c109,84 129,241 45,350 -14,19 -31,35 -49,48l-1413 1094 -906 2052c-56,126 -203,183 -329,128 -74,-32 -124,-96 -142,-169l-622 -2021 -1405 -1087c-109,-84 -129,-241 -45,-350 14,-19 31,-35 49,-48l1408 -1090 765 -2043c48,-129 191,-194 320,-146 71,26 122,81 147,147zm323 2283l-557 -1487 -553 1478c-15,46 -43,88 -84,119l-1213 939 1210 936c41,31 73,74 89,126l452 1470 661 -1498 0 0c16,-37 42,-70 76,-97l1213 -939 -1213 -939 0 0c-36,-27 -64,-65 -81,-110zm5914 18037l765 2042 1412 1093c109,84 129,241 45,350 -14,19 -31,35 -49,48l-1408 1090 -765 2043c-48,129 -191,194 -320,146 -71,-26 -122,-81 -147,-147l-765 -2042 -1412 -1093c-109,-84 -129,-241 -45,-350 14,-19 31,-35 49,-48l1408 -1090 765 -2043c48,-129 191,-194 320,-146 71,26 122,81 147,147zm323 2283l-557 -1487 -553 1478c-15,46 -43,88 -84,119l-1213 939 1213 939 0 0c36,27 64,65 81,110l557 1487 553 -1478c15,-46 43,-88 84,-119l1213 -939 -1213 -939 0 0c-36,-27 -64,-65 -81,-110zm36563 -24360l765 2042 1412 1093c109,84 129,241 45,350 -14,19 -31,35 -49,48l-1413 1094 -906 2052c-56,126 -203,183 -329,128 -74,-32 -124,-96 -142,-169l-622 -2021 -1405 -1087c-109,-84 -129,-241 -45,-350 14,-19 31,-35 49,-48l1408 -1090 765 -2043c48,-129 191,-194 320,-146 71,26 122,81 147,147zm323 2283l-557 -1487 -553 1478c-15,46 -43,88 -84,119l-1213 939 1210 936c41,31 73,74 89,126l452 1470 661 -1498 0 0c16,-37 42,-70 76,-97l1213 -939 -1213 -939 0 0c-36,-27 -64,-65 -81,-110zm-2462 23665c-138,0 -250,-112 -250,-250 0,-138 112,-250 250,-250l1937 0 0 -1937c0,-138 112,-250 250,-250 138,0 250,112 250,250l0 1937 1937 0c138,0 250,112 250,250 0,138 -112,250 -250,250l-1937 0 0 1937c0,138 -112,250 -250,250 -138,0 -250,-112 -250,-250l0 -1937 -1937 0zm-31891 -14111c-138,0 -250,-112 -250,-250 0,-138 112,-250 250,-250l1875 0 63 -1945c4,-138 119,-246 257,-241 138,4 246,119 241,257l-62 1929 2000 0c138,0 250,112 250,250 0,138 -112,250 -250,250l-2017 0 -63 1945c-4,138 -119,246 -257,241 -138,-4 -246,-119 -241,-257l62 -1929 -1859 0zm21096 -16046l1189 1800 2215 95c138,5 245,121 239,259 -2,39 -12,76 -30,108l0 0 -1018 1893 1018 1893c65,121 20,273 -102,338 -38,21 -80,30 -120,30l-2336 95 -1052 1793c-70,119 -222,158 -341,89 -34,-20 -61,-47 -82,-77l0 0 -1192 -1804 -2215 -95c-138,-5 -245,-121 -239,-259 2,-39 12,-76 30,-108l0 0 1018 -1893 -1018 -1893c-65,-121 -20,-273 102,-338 38,-21 79,-30 120,-30l2203 -95 1192 -1804c76,-115 231,-146 346,-70 31,20 55,46 74,75zm843 2181l-1054 -1595 -1054 1595 0 0c-43,64 -115,108 -198,111l-1945 83 892 1658c40,72 43,162 2,239l-893 1661 1935 83c81,0 160,39 209,112l1041 1577 913 -1557c40,-75 118,-128 210,-131l2086 -84 -891 -1657c-40,-72 -43,-162 -2,-239l893 -1661 -1935 -83c-81,0 -160,-39 -209,-112zm5893 18203c0,138 -112,250 -250,250 -138,0 -250,-112 -250,-250 0,-276 99,-527 258,-712 168,-194 402,-314 662,-314 261,0 495,120 662,314 159,184 258,436 258,712 0,490 -174,936 -454,1261 -289,335 -691,542 -1136,542 -446,0 -847,-207 -1136,-542 -281,-325 -454,-771 -454,-1261 0,-704 249,-1344 650,-1809 410,-475 979,-769 1610,-769 631,0 1200,294 1610,769 402,465 650,1105 650,1809 0,911 -352,1738 -901,2341 -568,625 -1349,1013 -2171,1013 -810,0 -1505,-373 -2000,-978 -497,-607 -790,-1449 -790,-2376 0,-138 112,-250 250,-250 138,0 250,112 250,250 0,810 251,1540 676,2060 402,492 963,795 1614,795 678,0 1325,-325 1802,-849 469,-516 770,-1224 770,-2006 0,-582 -202,-1106 -527,-1483 -318,-368 -754,-595 -1233,-595 -480,0 -916,227 -1233,595 -326,377 -527,902 -527,1483 0,367 127,698 331,935 196,227 465,368 759,368 295,0 563,-141 759,-368 205,-237 331,-567 331,-935 0,-153 -52,-289 -135,-386 -75,-87 -176,-140 -285,-140 -109,0 -211,54 -285,140 -83,96 -135,233 -135,386zm-25112 -15171c0,138 -112,250 -250,250 -138,0 -250,-112 -250,-250 0,-153 -52,-289 -135,-386 -75,-87 -176,-140 -285,-140 -109,0 -211,54 -285,140 -83,96 -135,233 -135,386 0,386 102,730 287,968 160,207 386,334 663,334 311,0 624,-153 858,-398 225,-235 373,-554 373,-904 0,-582 -202,-1106 -527,-1483 -318,-368 -754,-595 -1233,-595 -480,0 -916,227 -1233,595 -326,377 -527,902 -527,1483 0,796 277,1514 724,2032 439,508 1043,822 1707,822 665,0 1269,-314 1707,-822 447,-518 724,-1236 724,-2032 0,-138 112,-250 250,-250 138,0 250,112 250,250 0,919 -324,1752 -847,2358 -532,615 -1268,996 -2084,996 -816,0 -1553,-381 -2084,-996 -523,-606 -847,-1440 -847,-2358 0,-704 249,-1344 650,-1809 410,-475 979,-769 1610,-769 631,0 1200,294 1610,769 402,465 650,1105 650,1809 0,486 -204,925 -512,1248 -326,341 -772,554 -1220,554 -443,0 -804,-201 -1057,-529 -252,-326 -392,-778 -392,-1273 0,-276 99,-527 258,-712 168,-194 402,-314 662,-314 261,0 495,120 662,314 159,184 258,436 258,712zm9650 11839c-39,-339 -134,-668 -277,-929 -99,-181 -218,-323 -352,-402 -113,-66 -244,-86 -392,-40 -167,52 -357,181 -569,409 -143,154 -234,558 -297,998 93,-77 189,-140 287,-191 295,-153 603,-193 895,-147 256,40 497,147 705,300zm2562 133c-64,-477 -157,-930 -311,-1094 -212,-228 -402,-357 -569,-409 -148,-46 -279,-26 -392,40 -134,79 -253,221 -352,402 -170,311 -272,719 -293,1125 15,-13 30,-26 45,-39 217,-178 475,-302 750,-345 281,-44 577,-5 860,145 89,47 176,105 262,174z"/></g><text x="0" y="60015" fill="#000000" font-size="5px" font-weight="bold" font-family="'Helvetica Neue', Helvetica, Arial-Unicode, Arial, Sans-serif">Created by Olena Panasovska</text><text x="0" y="60020" fill="#000000" font-size="5px" font-weight="bold" font-family="'Helvetica Neue', Helvetica, Arial-Unicode, Arial, Sans-serif">from the Noun Project</text></svg>