<svg xmlns="http://www.w3.org/2000/svg" xmlns:xlink="http://www.w3.org/1999/xlink" xml:space="preserve" version="1.1" style="shape-rendering:geometricPrecision;text-rendering:geometricPrecision;image-rendering:optimizeQuality;" viewBox="0 0 60000 75000" x="0px" y="0px" fill-rule="evenodd" clip-rule="evenodd"><defs><style type="text/css">
   
    .fil0 {fill:black;fill-rule:nonzero}
   
  </style></defs><g><path class="fil0" d="M27791 36333c4759,-778 7709,-3667 9002,-7160 378,-1021 615,-2094 715,-3181 -93,-46 -178,-107 -251,-180 -170,-170 -276,-406 -276,-666 0,-260 105,-495 276,-666 84,-84 185,-153 296,-200 -6,-166 -16,-331 -28,-497 -139,-1824 -655,-3617 -1530,-5203 -569,-1031 -1292,-1974 -2162,-2781 -129,66 -275,103 -429,103 -260,0 -495,-105 -666,-276 -170,-170 -276,-406 -276,-666 0,-75 9,-148 25,-218 -1619,-1068 -3613,-1726 -5961,-1776 -55,154 -143,291 -256,404 -197,197 -469,319 -770,319 -301,0 -573,-122 -770,-319 -197,-197 -319,-469 -319,-770 0,-301 122,-573 319,-770 197,-197 469,-319 770,-319 301,0 573,122 770,319 114,114 203,253 258,408 2521,50 4659,760 6393,1913 141,-85 306,-133 483,-133 115,0 225,21 326,58l1538 -1464c-2118,-1914 -4950,-3206 -8455,-3428 -55,151 -142,286 -253,397 -197,197 -469,319 -770,319 -301,0 -573,-122 -770,-319 -197,-197 -319,-469 -319,-770 0,-301 122,-573 319,-770 197,-197 469,-319 770,-319 301,0 573,122 770,319 115,115 205,257 260,414 3729,227 6737,1607 8980,3651l1638 -1560c-111,-198 -174,-426 -174,-669 0,-225 54,-438 151,-625 -1285,-1047 -2783,-1937 -4490,-2616 -1642,-653 -3478,-1110 -5506,-1324 -53,106 -123,203 -206,286 -197,197 -469,319 -770,319 -301,0 -573,-122 -770,-319 -197,-197 -319,-469 -319,-770 0,-301 122,-573 319,-770 197,-197 469,-319 770,-319 301,0 573,122 770,319 144,144 247,327 293,532 2091,221 3988,695 5687,1371 1792,713 3365,1651 4715,2756 210,-132 459,-208 726,-208 378,0 720,153 968,401 248,248 401,590 401,968 0,247 -65,479 -180,679 1467,1657 2543,3547 3223,5541l4782 -557c44,-104 107,-197 185,-276 156,-156 371,-252 608,-252 237,0 452,96 608,252 156,156 252,371 252,608 0,237 -96,452 -252,608 -156,156 -371,252 -608,252 -237,0 -452,-96 -608,-252 -61,-61 -114,-132 -154,-210l-4590 535c265,912 449,1842 551,2778 211,1931 72,3888 -421,5763 54,36 105,77 151,122 170,170 276,406 276,666 0,260 -105,495 -276,666 -170,170 -406,276 -666,276 -17,0 -33,0 -50,-1 -826,2097 -2126,4039 -3908,5659 -228,207 -464,409 -708,606l-1104 4578c39,28 75,60 109,93 5,5 10,10 15,16 100,-41 200,-82 299,-124 4174,-1763 7733,-4789 9498,-8927 -3,-3 -6,-6 -9,-8 -170,-170 -276,-406 -276,-666 0,-260 105,-495 276,-666 153,-153 358,-254 587,-273 275,-936 462,-1921 551,-2954 -144,-55 -274,-140 -381,-247 -197,-197 -319,-469 -319,-770 0,-301 122,-573 319,-770 197,-197 469,-319 770,-319 301,0 573,122 770,319 197,197 319,469 319,770 0,301 -122,573 -319,770 -119,119 -265,211 -429,264 -92,1107 -293,2161 -587,3162 17,15 34,31 51,47 170,170 276,406 276,666 0,114 -20,223 -57,324l2706 2509c113,-48 237,-75 368,-75 15,0 30,0 45,1 834,-1842 1441,-3887 1769,-6134 -130,-55 -248,-135 -346,-233 -197,-197 -319,-469 -319,-770 0,-301 122,-573 319,-770 197,-197 469,-319 770,-319 301,0 573,122 770,319 197,197 319,469 319,770 0,301 -122,573 -319,770 -128,128 -286,224 -464,275 -337,2348 -970,4484 -1841,6406 149,167 239,386 239,627 0,260 -105,495 -276,666 -170,170 -406,276 -666,276 -28,0 -56,-1 -84,-4 -230,415 -473,819 -726,1212 98,148 154,326 154,517 0,114 -20,223 -57,324l2250 2087c436,-763 837,-1564 1199,-2403 -4,-4 -9,-8 -13,-13 -197,-197 -319,-469 -319,-770 0,-301 122,-573 319,-770 197,-197 469,-319 770,-319 301,0 573,122 770,319 197,197 319,469 319,770 0,301 -122,573 -319,770 -197,197 -469,319 -770,319 -32,0 -64,-1 -95,-4 -2155,4987 -5635,8663 -9706,11026 -3390,1968 -7189,3023 -10972,3167 -40,67 -88,129 -143,184 -170,170 -406,276 -666,276 -260,0 -495,-105 -666,-276 -53,-53 -101,-113 -140,-178 -590,-18 -1177,-59 -1761,-122 -84,201 -206,381 -358,533 -300,300 -714,485 -1171,485 -112,0 -221,-11 -326,-32l-553 2264c40,29 78,61 113,96 144,144 242,336 269,549 5086,1044 10748,857 16766,-966 -123,-176 -195,-391 -195,-623 0,-301 122,-573 319,-770 197,-197 469,-319 770,-319 301,0 573,122 770,319 197,197 319,469 319,770 0,301 -122,573 -319,770 -184,184 -434,302 -711,317 -6440,2083 -12497,2328 -17917,1205 -22,28 -46,54 -71,79 -170,170 -406,276 -666,276 -260,0 -495,-105 -666,-276 -127,-127 -217,-289 -256,-470 -1863,-494 -3645,-1151 -5333,-1951 -2927,-1389 -5573,-3209 -7879,-5353 -123,59 -261,92 -407,92 -141,0 -275,-31 -396,-87l-2747 2735c1486,1491 3132,2873 4833,4020 172,-114 379,-181 602,-181 301,0 573,122 770,319 197,197 319,469 319,770 0,301 -122,573 -319,770 -197,197 -469,319 -770,319 -301,0 -573,-122 -770,-319 -197,-197 -319,-469 -319,-770 0,-113 17,-223 50,-326 -1853,-1253 -3638,-2774 -5229,-4411 -1581,-1627 -2972,-3371 -4049,-5083 -71,15 -144,22 -220,22 -301,0 -573,-122 -770,-319 -197,-197 -319,-469 -319,-770 0,-301 122,-573 319,-770 197,-197 469,-319 770,-319 301,0 573,122 770,319 197,197 319,469 319,770 0,262 -92,502 -246,690 1004,1594 2289,3219 3751,4748l2764 -2752c-35,-99 -55,-206 -55,-317 0,-140 31,-273 85,-392 -1361,-1414 -2585,-2946 -3658,-4572 -3112,-4713 -4954,-10205 -5184,-15836 -290,-7134 2008,-14487 7593,-20760 14,-16 29,-30 44,-42 -66,-141 -104,-298 -104,-464 0,-301 122,-573 319,-770 197,-197 469,-319 770,-319 301,0 573,122 770,319 197,197 319,469 319,770 0,301 -122,573 -319,770 -197,197 -469,319 -770,319 -171,0 -332,-39 -476,-109 -3,4 -6,8 -10,11 -5451,6121 -7693,13292 -7411,20246 224,5496 2024,10858 5064,15462 1052,1593 2252,3095 3587,4480 100,-36 208,-56 321,-56 260,0 495,105 666,276 170,170 276,406 276,666 0,107 -18,209 -51,305 2255,2099 4843,3880 7706,5239 1633,775 3357,1412 5159,1893 35,-52 74,-100 118,-144 136,-136 313,-230 511,-263l587 -2402c-60,-46 -117,-95 -171,-149 -286,-286 -468,-676 -484,-1108 -4358,-1117 -8335,-3557 -11195,-7322 -2531,-3333 -4183,-7699 -4440,-13099 -336,-1527 907,-1901 1074,-457 634,5466 3864,8981 8120,10742 2410,997 5151,1436 7938,1352 2119,-64 4263,-430 6311,-1082 16,-234 118,-445 274,-601 137,-137 316,-232 516,-264l898 -3724c-2377,1650 -5400,2808 -9080,3213 -93,12 -186,24 -279,36 -452,53 -652,-857 -153,-939zm22650 -807c-119,54 -251,84 -389,84 -77,0 -151,-9 -222,-26 -463,602 -954,1173 -1469,1713 -3293,3450 -7590,5638 -12066,6565 -29,334 -177,634 -401,858 -251,251 -598,406 -981,406 -116,0 -228,-14 -335,-41l-540 2792c69,41 132,90 189,146 113,113 198,255 242,414 3626,-157 7261,-1178 10509,-3063 3067,-1780 5789,-4332 7830,-7654l-2365 -2194zm-2360 -6367c-112,51 -236,81 -366,84 -1839,4332 -5547,7493 -9896,9330 -107,45 -214,89 -322,133 -8,248 -111,473 -275,637 -137,137 -316,232 -516,264l-770 3195c93,101 171,216 230,342 4332,-901 8487,-3017 11667,-6349 495,-518 966,-1066 1410,-1643 -85,-141 -133,-306 -133,-483 0,-260 105,-495 276,-666 170,-170 406,-276 666,-276 63,0 124,6 183,18 239,-371 468,-753 686,-1145 -133,-163 -214,-370 -214,-597 0,-122 23,-239 65,-346l-2692 -2497zm-9234 -4201l902 180c101,-808 135,-1627 102,-2444 -86,-2127 -625,-4247 -1597,-6158 -635,-1249 -1456,-2408 -2458,-3419l-1532 1459c53,118 83,249 83,386 0,97 -15,190 -42,279 939,866 1717,1881 2330,2990 926,1678 1472,3572 1619,5499 14,182 24,364 31,547 115,48 219,118 306,205 128,128 220,293 257,478zm1618 322l1638 326c34,-50 72,-96 114,-138 125,-125 285,-215 464,-254 481,-1804 617,-3690 414,-5554 -337,-3087 -1608,-6110 -3791,-8589 -198,112 -428,176 -672,176 -249,0 -482,-66 -683,-182l-1624 1547c1050,1064 1911,2281 2579,3593 1019,2003 1584,4227 1674,6460 36,875 -2,1751 -113,2615zm1496 1042l-1606 -320c-195,1092 -510,2159 -948,3176 -838,1944 -2123,3701 -3872,5088 1083,-601 2050,-1298 2901,-2072 1712,-1557 2957,-3423 3742,-5437 -107,-121 -184,-270 -217,-435zm-2321 -462l-935 -186c-34,50 -72,96 -114,138 -98,98 -219,175 -353,223 -105,1158 -356,2301 -759,3389 -756,2042 -2042,3891 -3883,5280 2428,-1412 4130,-3469 5141,-5813 418,-970 718,-1988 903,-3030zm-15227 28945c447,0 852,181 1146,475 293,293 475,698 475,1146 0,447 -181,852 -475,1146 -293,293 -698,475 -1146,475 -447,0 -852,-181 -1146,-475 -293,-293 -475,-698 -475,-1146 0,-447 181,-852 475,-1146 293,-293 698,-475 1146,-475zm630 991c-161,-161 -384,-261 -630,-261 -246,0 -468,100 -630,261 -161,161 -261,384 -261,630 0,246 100,468 261,630 161,161 384,261 630,261 246,0 468,-100 630,-261 161,-161 261,-384 261,-630 0,-246 -100,-468 -261,-630zm-5067 -1741c367,0 700,149 941,390 241,241 390,573 390,941 0,367 -149,700 -390,941 -241,241 -573,390 -941,390 -367,0 -700,-149 -941,-390 -241,-241 -390,-573 -390,-941 0,-367 149,-700 390,-941 241,-241 573,-390 941,-390zm425 906c-109,-109 -259,-176 -425,-176 -166,0 -316,67 -425,176 -109,109 -176,259 -176,425 0,166 67,316 176,425 109,109 259,176 425,176 166,0 316,-67 425,-176 109,-109 176,-259 176,-425 0,-166 -67,-316 -176,-425zm24372 -36154c-200,21 -379,-124 -401,-324 -21,-200 124,-379 324,-401l2414 -266c200,-21 379,124 401,324 21,200 -124,379 -324,401l-2414 266zm-700 -4188c-200,21 -379,-124 -401,-324 -21,-200 124,-379 324,-401l2414 -266c200,-21 379,124 401,324 21,200 -124,379 -324,401l-2414 266zm4640 1163c-23,-23 -56,-38 -92,-38 -36,0 -68,15 -92,38 -23,23 -38,56 -38,92 0,36 15,68 38,92 23,23 56,38 92,38 36,0 68,-15 92,-38 23,-23 38,-56 38,-92 0,-36 -15,-68 -38,-92zm3191 -1504c367,0 700,149 941,390 241,241 390,573 390,941 0,367 -149,700 -390,941 -241,241 -573,390 -941,390 -367,0 -700,-149 -941,-390 -241,-241 -390,-573 -390,-941 0,-367 149,-700 390,-941 241,-241 573,-390 941,-390zm425 906c-109,-109 -259,-176 -425,-176 -166,0 -316,67 -425,176 -109,109 -176,259 -176,425 0,166 67,316 176,425 109,109 259,176 425,176 166,0 316,-67 425,-176 109,-109 176,-259 176,-425 0,-166 -67,-316 -176,-425zm-13243 -5756c-116,-116 -276,-187 -452,-187 -177,0 -336,72 -452,187 -116,116 -187,276 -187,452 0,177 72,336 187,452 116,116 276,187 452,187 177,0 336,-72 452,-187 116,-116 187,-276 187,-452 0,-177 -72,-336 -187,-452zm-5770 38352l596 -3082c-119,-125 -216,-272 -282,-434 -397,38 -797,66 -1199,84 -320,15 -640,23 -959,25l-696 3031c202,260 327,582 344,932 508,54 1020,90 1532,109 43,-161 129,-306 244,-420 115,-115 259,-200 420,-243zm2685 -8343c-39,-28 -75,-60 -109,-93 -14,-14 -27,-28 -40,-42 -2116,676 -4334,1055 -6525,1121 -2886,87 -5729,-370 -8235,-1407 -3106,-1285 -5694,-3456 -7215,-6580 1133,3299 3176,5868 5758,7709 3551,2530 8125,3689 12763,3477 378,-17 759,-44 1142,-80 44,-304 185,-576 392,-782 251,-251 598,-406 981,-406 129,0 253,18 372,50l715 -2965zm-622 3837c-119,-119 -283,-193 -465,-193 -182,0 -346,74 -465,193 -119,119 -193,283 -193,465 0,182 74,346 193,465 119,119 283,193 465,193 182,0 346,-74 465,-193 119,-119 193,-283 193,-465 0,-182 -74,-346 -193,-465zm-5236 3631l583 -2539c-4201,-104 -8264,-1314 -11512,-3628 -2073,-1477 -3813,-3401 -5045,-5772 741,2184 1771,4101 3026,5753 2744,3613 6562,5960 10749,7044 84,-194 203,-369 351,-517 300,-300 714,-485 1171,-485 241,0 470,52 677,144zm-22 857c-168,-168 -399,-271 -655,-271 -256,0 -488,104 -655,271 -168,168 -271,399 -271,655 0,256 104,488 271,655 168,168 399,271 655,271 256,0 488,-104 655,-271 168,-168 271,-399 271,-655 0,-256 -104,-488 -271,-655zm-24618 -5275c-65,-65 -155,-105 -254,-105 -99,0 -189,40 -254,105 -65,65 -105,155 -105,254 0,99 40,189 105,254 65,65 155,105 254,105 99,0 189,-40 254,-105 65,-65 105,-155 105,-254 0,-99 -40,-189 -105,-254zm10537 10887c-65,-65 -155,-105 -254,-105 -99,0 -189,40 -254,105 -65,65 -105,155 -105,254 0,99 40,189 105,254 65,65 155,105 254,105 99,0 189,-40 254,-105 65,-65 105,-155 105,-254 0,-99 -40,-189 -105,-254zm30842 -2266c-65,-65 -155,-105 -254,-105 -99,0 -189,40 -254,105 -65,65 -105,155 -105,254 0,99 40,189 105,254 65,65 155,105 254,105 99,0 189,-40 254,-105 65,-65 105,-155 105,-254 0,-99 -40,-189 -105,-254zm8517 -17468c-65,-65 -155,-105 -254,-105 -99,0 -189,40 -254,105 -65,65 -105,155 -105,254 0,99 40,189 105,254 65,65 155,105 254,105 99,0 189,-40 254,-105 65,-65 105,-155 105,-254 0,-99 -40,-189 -105,-254zm-1255 -9970c-65,-65 -155,-105 -254,-105 -99,0 -189,40 -254,105 -65,65 -105,155 -105,254 0,99 40,189 105,254 65,65 155,105 254,105 99,0 189,-40 254,-105 65,-65 105,-155 105,-254 0,-99 -40,-189 -105,-254zm-5335 -531c-65,-65 -155,-105 -254,-105 -99,0 -189,40 -254,105 -65,65 -105,155 -105,254 0,99 40,189 105,254 65,65 155,105 254,105 99,0 189,-40 254,-105 65,-65 105,-155 105,-254 0,-99 -40,-189 -105,-254zm-22112 -18563c-65,-65 -155,-105 -254,-105 -99,0 -189,40 -254,105 -65,65 -105,155 -105,254 0,99 40,189 105,254 65,65 155,105 254,105 99,0 189,-40 254,-105 65,-65 105,-155 105,-254 0,-99 -40,-189 -105,-254zm-652 3983c-65,-65 -155,-105 -254,-105 -99,0 -189,40 -254,105 -65,65 -105,155 -105,254 0,99 40,189 105,254 65,65 155,105 254,105 99,0 189,-40 254,-105 65,-65 105,-155 105,-254 0,-99 -40,-189 -105,-254zm-290 3790c-65,-65 -155,-105 -254,-105 -99,0 -189,40 -254,105 -65,65 -105,155 -105,254 0,99 40,189 105,254 65,65 155,105 254,105 99,0 189,-40 254,-105 65,-65 105,-155 105,-254 0,-99 -40,-189 -105,-254zm-13083 -9559c-65,-65 -155,-105 -254,-105 -99,0 -189,40 -254,105 -65,65 -105,155 -105,254 0,99 40,189 105,254 65,65 155,105 254,105 99,0 189,-40 254,-105 65,-65 105,-155 105,-254 0,-99 -40,-189 -105,-254z"/></g><text x="0" y="60015" fill="#000000" font-size="5px" font-weight="bold" font-family="'Helvetica Neue', Helvetica, Arial-Unicode, Arial, Sans-serif">Created by Olena Panasovska</text><text x="0" y="60020" fill="#000000" font-size="5px" font-weight="bold" font-family="'Helvetica Neue', Helvetica, Arial-Unicode, Arial, Sans-serif">from the Noun Project</text></svg>